<?xml version="1.0" standalone="no"?>
<!DOCTYPE svg PUBLIC "-//W3C//DTD SVG 1.1//EN" "http://www.w3.org/Graphics/SVG/1.1/DTD/svg11.dtd" >
<svg xmlns="http://www.w3.org/2000/svg">
<metadata>Generated by IcoMoon</metadata>
<defs>
<font id="customicons" horiz-adv-x="1024">
<font-face units-per-em="1024" ascent="960" descent="-64" />
<missing-glyph horiz-adv-x="1024" />
<glyph unicode="&#x20;" d="" horiz-adv-x="512" />
<glyph unicode="&#xe600;" d="M211.48 631.101c16.384-3.608 30.964-7.266 30.964-7.266s7.314 40.082 12.824 52.858c2.926 7.022 11.703 15.799 22.382 22.089-55.832-16.628-106.008-45.446-148.285-83.334 6.095-3.462 27.209-15.067 36.474-13.507 10.923 1.804 29.208 32.817 45.641 29.16zM487.57 242.469c-37.693 0-52.468 28.282-52.468 64.268 0 1.853 0 245.662 0 405.211-15.262 1.755-30.915 3.023-46.811 3.023-28.477 0-56.027-3.17-82.846-9.070 0.341-0.049 0.585 0 0.878-0.049 20.041-3.657 23.65-12.776 9.118-25.502s-14.629-12.776-14.629-12.776 32.817-1.804 45.592-16.384c12.776-14.629 36.523-7.266 31.061-20.090-5.608-12.776-40.229-27.355-51.151-27.355-11.020 0-5.461 18.237-20.090 23.601-14.629 5.51-36.425 16.433-40.131 5.51-3.56-10.874-29.16-18.139-25.405-27.307 3.56-9.118-20.090-10.971-16.433-30.964 3.608-20.041 14.531-36.376 40.082-36.376s51.005 25.454 49.25 43.691c-1.853 18.237 29.94 15.067 49.932-4.974 20.041-20.139 30.476-42.569 6.778-62.61-23.601-20.090-54.955-78.312-64.024-92.794-9.167-14.58 3.608-45.69-5.461-49.25-9.118-3.706-38.229-3.706-36.425 1.755s-7.266 34.718-31.061 25.454c-23.601-9.167-65.585-21.845-63.781-38.181 1.804-16.384-1.804-41.886 25.454-45.641 27.404-3.608 19.992 21.894 38.229 21.894s29.257-7.314 25.551-31.013c-3.608-23.65 12.776-61.976 40.034-67.438 27.404-5.413 76.556-21.845 107.569-47.494 30.964-25.454 59.051-32.573 75.483-34.475 16.482-1.707 26.575-42.033 19.31-60.172-7.266-18.237-131.023-111.47-154.673-122.392-23.698-11.069-32.573 5.413-27.16 23.601 5.461 18.188 1.268 62.269-20.626 85.918s-56.466 36.474-54.711 60.123c1.853 23.747-5.413 51.102 7.266 52.907 12.824 1.853 11.020 20.041 0 29.16-10.971 9.167-149.406 102.107-171.301 155.014-21.797 52.907-19.992 116.736-14.531 129.463 1.804 4.34 2.097 19.7 4.047 37.498-43.642-62.805-69.486-139.118-69.486-221.428 0-214.406 173.787-388.34 388.242-388.34 185.49 0 340.309 130.194 378.88 304.079-40.18-0.098-197.876-0.098-279.552-0.098zM970.557 957.513h-429.056c-40.716 0-53.541-12.434-53.541-52.76v-557.495c0-40.326 12.824-52.712 53.541-52.712h341.236l141.263 135.704v474.453c0 40.424-12.727 52.809-53.443 52.809zM647.899 589.653v7.461c0 0.585 0.78 33.792 7.948 41.886 8.826 9.704 20.529 11.703 38.083 18.53 14.775 5.754 25.405 8.777 31.208 16.677 4.486 5.851 5.266 16.091 3.023 22.089-4.876 2.584-9.996 5.656-13.8 10.63-4.779 6.29-7.119 15.506-7.119 15.506s-12.678 1.17-16.823 15.604c-6.29 21.065 4.535 19.115 4.535 19.115s-3.901 51.785 1.999 63.439c6.68 13.361 25.502 26.624 58.563 27.014v0c23.406 1.268 24.332-9.167 33.158-7.412 15.604 2.877 20.578-3.56 26.77-9.752 7.314-7.412 1.902-73.24 1.902-73.24s10.776 1.95 4.632-19.115c-4.145-14.385-16.92-15.604-16.92-15.604s-2.389-9.216-7.119-15.555c-3.755-5.022-9.021-8.046-13.653-10.63-2.438-5.998-3.511-16.286 0.926-22.089 5.851-7.851 16.384-10.923 31.305-16.677 17.506-6.827 29.257-8.826 38.034-18.578 8.192-9.167 9.557-41.204 9.704-41.838v0-7.314c0-5.364-4.437-9.704-9.752-9.704h-196.901c-5.413-0.195-9.704 4.194-9.704 9.557zM969.728 439.418l-97.085-95.72c-32.28-32.085-25.405 23.942-25.405 23.942v64.902c0 35.45 34.572 35.45 34.572 35.45h74.167c54.223 1.122 13.751-28.574 13.751-28.574z" />
<glyph unicode="&#xe601;" d="M743.229 465.067c0 0-133.803 0-188.514 0-17.944 0-23.016 6.242-23.016 23.064 0 50.566 0 188.709 0 188.709 0 11.313-13.166 20.529-29.257 20.529-16.189 0-29.257-9.167-29.257-20.529 0 0 0-167.692 0-220.306 0-32.67 11.947-49.932 48.811-49.932 54.565 0 221.184 0 221.184 0 11.362 0 20.578 13.068 20.578 29.257 0.049 16.091-9.167 29.208-20.529 29.208zM512 960c-282.77 0-512-229.23-512-512s229.23-512 512-512 512 229.23 512 512-229.23 512-512 512zM512-8.216c-252.002 0-456.216 204.215-456.216 456.168s204.215 456.168 456.216 456.168c251.855 0 456.168-204.215 456.168-456.168s-204.264-456.168-456.168-456.168zM551.546 802.645c0-21.841-17.705-39.546-39.546-39.546s-39.546 17.705-39.546 39.546c0 21.841 17.705 39.546 39.546 39.546s39.546-17.705 39.546-39.546zM551.546 90.429c0-21.841-17.705-39.546-39.546-39.546s-39.546 17.705-39.546 39.546c0 21.841 17.705 39.546 39.546 39.546s39.546-17.705 39.546-39.546zM907.605 446.586c0-21.841-17.705-39.546-39.546-39.546s-39.546 17.705-39.546 39.546c0 21.841 17.705 39.546 39.546 39.546s39.546-17.705 39.546-39.546zM195.535 446.586c0-21.841-17.705-39.546-39.546-39.546s-39.546 17.705-39.546 39.546c0 21.841 17.705 39.546 39.546 39.546s39.546-17.705 39.546-39.546z" />
<glyph unicode="&#xe602;" d="M999.424 836.584h-100.547v103.083c0.049 11.215-12.873 20.334-28.916 20.334-15.945 0-28.965-9.118-28.965-20.334v-103.083h-101.717c-11.264 0-20.382-12.971-20.382-28.965s9.118-28.965 20.382-28.965h101.717v-100.888c0-11.215 13.019-20.334 28.965-20.334 16.043 0 28.965 9.118 28.965 20.334v100.888h100.547c11.264 0 20.382 12.971 20.382 28.965s-9.118 28.965-20.431 28.965zM790.821 157.33c-46.568 35.791-155.599 101.425-180.419 118.199-23.454 15.799-38.229 11.654-59.928 0.488-25.405-13.166-119.32-61.147-133.266-61.147-14.19 0-105.96 43.788-136.387 63.39-20.529 13.263-36.133 15.945-59.928 0.488-25.064-16.238-135.119-80.067-182.272-115.078-33.304-24.771-33.451-38.863-33.548-56.027l-0.829-94.354c-0.341-39.253 31.061-76.946 70.071-77.288h677.059c39.058-0.293 70.997 31.208 71.339 70.412v94.306c0.098 17.213 1.024 31.305-31.89 56.613zM764.684 21.187c-0.244-27.599-15.36-30.622-49.835-30.33h-604.062c-34.523 0.341-49.591 8.582-49.396 36.181l0.585 65.243c0.146 18.822 7.070 22.235 19.017 30.281 25.064 17.067 112.396 72.606 150.43 97.378 14.19 9.167 16.335 3.023 33.256-5.022 48.616-23.064 125.806-66.853 148.675-66.853v-0.293c0.244 0 0.536 0.146 0.829 0.146 0.195 0 0.488-0.195 0.78-0.195v0.293c16.238 0 98.694 41.74 150.674 64.366 17.262 7.461 19.31 13.8 33.304 4.437 37.644-25.405 123.075-82.359 147.944-99.816 11.703-8.338 17.993-11.8 17.847-30.622v-65.195zM644.681 620.568c8.387 34.426 13.214 62.269 11.166 93.525-6.388 98.938-59.246 235.374-234.886 236.837-177.298 1.56-230.839-134.046-238.933-232.887-2.536-31.256 1.853-59.099 9.606-93.72-23.503-7.607-48.274-44.276-24.381-108.69 11.557-30.915 45.3-36.766 66.219-37.595 42.715-73.338 126.683-127.805 182.418-128.293s140.629 52.614 184.466 125.172c20.968 0.488 54.808 5.754 66.853 36.523 25.015 63.976 0.878 101.132-22.528 109.129zM278.089 516.413c-6.973 14.336-1.658 21.358-27.014 15.896-51.444-10.874-54.565 47.689-33.743 57.344 30.135 14.092 44.325 12.532 24.771 62.61-13.507 34.67-11.215 136.972 38.473 190.757 34.377 37.205 88.015 50.176 139.8 49.786 51.785-0.439 105.131-14.287 138.923-52.126 48.811-54.565 49.396-156.818 35.352-191.342-20.431-49.786-6.193-48.372 23.65-63 20.724-10.045 16.579-68.559-34.67-56.808-25.21 5.851-19.992-1.17-27.258-15.36 0 0-47.738-108.544-140.386-107.764-93.477 0.731-137.899 110.007-137.899 110.007z" />
<glyph unicode="&#xe603;" d="M1005.519 114.322c-94.013 173.592-361.082 609.182-450.462 763.124-14.336 24.722-29.403 31.403-42.52 30.232v0.098c-0.146 0.049-0.341-0.049-0.488-0.049-0.195 0-0.39 0.098-0.585 0.049v-0.049c-13.166 1.17-28.087-5.51-42.472-30.232-89.332-153.99-356.498-589.58-450.511-763.173-44.373-81.969-2.194-126.196 56.661-126.196 94.354 0 779.459 0 873.765 0 58.807 0 101.035 44.276 56.613 126.196zM915.7 39.375c-75.483 0-709.047 0-784.53 0-84.456 0-107.959-3.755-55.491 93.184 75.191 138.874 348.55 571.099 420.035 694.272 11.508 19.749 22.284 20.529 33.743 0.78 71.485-123.173 345.576-581.778 420.766-720.701 35.547-65.634 7.363-67.535-34.523-67.535zM552.814 169.716c0-21.679-17.574-39.253-39.253-39.253s-39.253 17.574-39.253 39.253c0 21.679 17.574 39.253 39.253 39.253s39.253-17.574 39.253-39.253zM451.438 504.076c4.681-58.368 32.183-219.819 32.183-219.819s3.413-27.307 32.67-27.307c31.5 0 32.475 27.307 32.475 27.307s22.479 182.76 24.040 219.867c3.218 75.532-127.464 75.435-121.368-0.049z" />
<glyph unicode="&#xe604;" d="M535.454-55.662l228.108 166.473c12.142 7.119 13.848 26.77 3.803 44.081-10.094 17.213-27.941 26.478-40.082 19.358l-177.786-138.776v899.657c0 13.702-16.091 24.869-36.133 24.869-19.846 0-36.084-11.166-36.084-24.869v-899.608l-180.517 138.776c-12.142 6.973-29.989-1.219-40.082-18.53-10.045-17.262-8.29-36.864 3.803-43.934l231.083-167.497c3.365-1.95 16.579-8.436 22.918-8.436 7.314 0 17.652 6.485 20.968 8.436z" />
<glyph unicode="&#xe605;" d="M8.387 424.546l166.473-228.059c7.119-12.142 26.722-13.848 44.081-3.803 17.213 10.094 26.478 27.941 19.407 40.082l-138.776 177.786h899.56c13.702 0 24.869 16.091 24.869 36.133 0 19.846-11.166 36.084-24.869 36.084h-899.56l138.776 180.517c6.973 12.142-1.219 30.037-18.53 40.082-17.213 10.045-36.864 8.29-43.934-3.803l-167.448-231.131c-1.999-3.365-8.436-16.53-8.436-22.869 0-7.363 6.437-17.701 8.387-21.016z" />
<glyph unicode="&#xe606;" d="M1015.564 471.357l-166.473 228.059c-7.119 12.142-26.77 13.848-44.081 3.803-17.213-10.094-26.478-27.941-19.358-40.082l138.776-177.786h-899.608c-13.702 0-24.869-16.091-24.869-36.133 0-19.846 11.166-36.084 24.869-36.084h899.56l-138.776-180.517c-6.973-12.142 1.219-29.989 18.53-40.082 17.262-10.045 36.864-8.29 43.934 3.803l167.497 231.083c1.95 3.365 8.436 16.579 8.436 22.918 0 7.314-6.485 17.652-8.436 21.016z" />
<glyph unicode="&#xe607;" d="M488.546 951.467l-228.108-166.473c-12.142-7.070-13.848-26.77-3.803-44.081 10.094-17.213 27.941-26.478 40.082-19.407l177.786 138.776v-899.56c0-13.702 16.091-24.869 36.133-24.869 19.846 0 36.084 11.166 36.084 24.869v899.56l180.517-138.776c12.142-6.973 29.989 1.219 40.082 18.53 10.045 17.262 8.29 36.864-3.803 43.934l-231.083 167.497c-3.365 1.95-16.579 8.436-22.918 8.436-7.314 0-17.652-6.485-20.968-8.436z" />
<glyph unicode="&#xe608;" d="M994.597 509.294c-95.281 72.363-303.348 239.665-388.389 289.646-17.603 10.338-87.82 27.746-87.82-62.805 0-25.21 0-115.273 0-154.234-22.918-1.56-139.703-3.95-269.897-77.385-247.71-139.654-249.856-347.721-248.296-385.804s54.272-37.205 71.485-14.287c19.066 25.405 127.025 142.921 240.347 177.835 110.836 34.133 190.757 23.698 206.36 22.43 0-47.835 0-89.771 0-119.515 0-101.62 75.825-68.754 95.281-56.954 76.215 46.031 277.894 194.511 384.293 273.31 36.23 26.917 34.28 79.141-3.365 107.764zM939.203 431.518c-96.841-74.606-238.202-171.447-301.739-212.748-38.376-25.015-58.709-39.692-58.709 28.574 0 24.235 0 65.731 0 101.62 0 13.556-7.509 24.576-33.89 27.014-52.029 4.876-108.349 5.754-193.195-15.848-152.82-39.107-249.125-134.583-272.091-165.157-14.287-19.115-24.771-6.534-15.311 24.869-6.388-21.309 23.308 139.703 227.084 246.589 94.11 49.347 208.75 53.931 261.998 57.198 11.752 0.731 25.405 7.509 25.405 29.745 0 33.938 0 112.25 0 135.363 0 53.979 15.701 46.568 49.201 23.796 66.999-45.446 224.841-171.203 308.029-234.984 17.993-13.751 23.406-30.525 3.218-46.031z" />
<glyph unicode="&#xe609;" d="M968.119 168.253c14.434 0 26.039 12.337 26.039 27.404v0c0 15.214-11.605 27.453-26.039 27.453h-302.47c-14.385 0-25.99-12.239-25.99-27.453v0c0-15.116 11.605-27.404 25.99-27.404h302.47zM968.119 490.082c14.434 0 26.039 12.337 26.039 27.453v0c0 15.214-11.605 27.404-26.039 27.404h-397.361c-14.434 0-25.99-12.239-25.99-27.404v0c0-15.116 11.557-27.453 25.99-27.453h397.361zM968.119 811.91c14.434 0 26.039 12.337 26.039 27.453v0c0 15.214-11.605 27.404-26.039 27.404h-587.191c-14.434 0-25.99-12.239-25.99-27.404v0c0-15.116 11.557-27.453 25.99-27.453h587.191zM238.494 499.639c15.799 3.901-13.848 45.544-19.797 57.393-7.607 15.214-48.079 15.214-88.015 20.675-20.187 2.779-61.294 110.787-27.16 108.349 34.816-2.536 43.301-1.512 61.781-1.512 23.698 0 2.974 40.521-20.773 44.52-24.674 4.096-57.295-8.972-63.244 12.776-4.632 17.018-18.627 103.57-21.797 116.736-12.044 50.322-50.42 72.46-14.824 96.207 28.136 18.822 88.99-17.798 115.663-41.545 21.992-19.456 97.963-56.856 236.3-308.76 115.712-210.603 161.207-412.038 167.107-432.811 5.949-20.773 69.73-114.2 91.965-175.006 23.308-63.586-37.059-74.167-56.32-45.934-10.679 15.555-70.851 142.19-84.992 166.278-33.646 57.295 0 36.035-62.269 37.595-86.065 2.146-134.534 39.497-185.88 132.486-14.141 25.551 8.436 31.842 17.749 31.598 32.134-0.878 77.775-18.286 68.218 6.973-16.823 44.471 1.024 32.622-66.219 44.471-17.749 3.121-60.318 3.998-69.242 27.697-2.682 7.217-63.244 105.765-33.597 105.765 18.627 0.049 42.52-7.168 55.345-3.95z" />
<glyph unicode="&#xe60a;" d="M496.786 471.308c49.396 57.929 175.64 234.057 175.64 234.057 6.729 9.021 1.755 24.088-11.118 33.646-12.776 9.606-28.574 10.094-35.352 0.975 0 0-121.905-161.841-157.403-211.383-3.365-4.827-8.533-10.435-17.701-3.657-33.012 24.478-69.437 51.444-69.437 51.444-8.972 6.729-24.040 1.804-33.597-11.020-9.606-12.776-10.045-28.623-1.024-35.352 0 0 39.838-31.5 80.311-62.415 27.404-21.016 52.468-16.433 69.681 3.706zM952.661 735.354h-154.38v153.6c0 39.253-31.793 71.046-71.046 71.046h-430.47c-39.205 0-71.046-31.793-71.046-71.046v-153.6h-154.38c-39.253 0-71.046-31.793-71.046-71.046v-657.262c0-39.253 31.793-71.046 71.046-71.046h881.323c39.253 0 71.046 31.793 71.046 71.046v657.262c0 39.253-31.793 71.046-71.046 71.046zM798.281 401.725c22.918-0.293 39.351-4.096 39.351-30.379v-22.772c0-28.087-15.262-30.476-39.351-30.379v83.529zM286.622 872.326c0 34.718 23.211 30.184 57.832 30.184h329.582c34.621 0 63.39 4.535 63.39-30.184v-553.935h-450.804v553.935zM962.853 23.723c0-34.767-23.259-30.184-57.88-30.184h-780.386c-34.621 0-63.39-4.584-63.39 30.184v623.957c0 34.718 23.211 30.184 57.832 30.184h106.74v-218.843h-29.16c-39.253 0-71.046-31.793-71.046-71.046v-56.076c0-39.253 31.793-71.046 71.046-71.046h630.833c39.253 0 71.046 31.793 71.046 71.046v56.076c0 39.253-31.793 71.046-71.046 71.046h-29.16v218.843h101.132c34.67 0 63.439 4.584 63.439-30.184v-623.957zM225.719 401.725v-83.529c-22.918 0.293-39.351 4.096-39.351 30.379v22.772c0.049 28.087 15.311 30.476 39.351 30.379z" />
<glyph unicode="&#xe60b;" d="M447.244 807.863c-8.094 0-14.677-2.974-19.651-8.68-4.876-5.803-7.266-15.311-7.266-28.672 0-13.214 2.438-22.821 7.314-28.574s11.605-8.68 20.041-8.68c8.728 0 15.458 2.926 20.236 8.485 4.681 5.705 7.119 15.896 7.119 30.476 0 12.386-2.487 21.358-7.412 27.063-5.071 5.656-11.8 8.582-20.382 8.582zM876.154 960c-56.954 0-671.5 0-728.357 0-37.352 0-52.517-11.849-52.517-52.614 0-20.773 0-904.143 0-907.020 0-47.592 3.316-64.366 52.517-64.366 81.871 0 646.534 0 728.357 0 49.201 0 52.565 16.969 52.565 64.366 0 4.194 0 886.248 0 907.020 0 40.765-15.311 52.614-52.565 52.614zM532.529 836.242h123.124v-32.329h-41.253v-98.597h-40.57v98.597h-41.301v32.329zM268.922 836.242l29.55-94.306 29.16 94.306h41.058l-48.664-131.072h-43.934l-49.542 131.072h42.374zM759.174 96.914h-493.080v493.129h493.080v-493.129zM412.282 709.998c-9.655 4.779-17.506 12.239-23.552 22.382s-9.070 22.967-9.070 38.278c0 21.358 5.949 37.937 17.847 49.883s28.526 17.896 49.835 17.896c21.797 0 38.619-5.851 50.371-17.554 11.8-11.654 17.701-28.038 17.701-49.25 0-15.214-2.633-27.843-7.704-37.595-5.12-9.752-12.678-17.408-22.284-22.967-9.655-5.461-21.943-8.143-36.523-8.143-14.775 0.049-26.965 2.438-36.62 7.070zM793.502 705.17h-110.641v131.072h108.69v-27.941h-68.072v-20.87h63.049v-26.722h-63.049v-25.795h69.973v-29.745zM315.685 532.309v-385.804h385.804v385.804h-385.804zM460.41 216.478l-42.228 42.179-63.781 63.829 42.179 42.179 63.878-63.878 150.187 150.284 42.13-42.228-192.366-192.366z" />
<glyph unicode="&#xe60c;" d="M291.304 599.991h-65.292c-39.595 0-71.582-32.037-71.582-71.582v-259.17c0-39.546 31.988-71.582 71.582-71.582h65.292c39.546 0 71.582 32.037 71.582 71.582v259.17c-0.049 39.497-32.085 71.582-71.582 71.582zM303.202 285.964c0-27.843-1.56-31.013-36.474-31.013h-16.043c-34.914 0-34.914 6.29-34.914 31.013v225.67c0 26.819 0 31.061 34.914 31.061h16.043c34.914 0 36.474-5.803 36.474-31.061v-225.67zM556.373 469.016h-65.341c-39.546 0-71.582-32.037-71.582-71.582v-128.244c0-39.546 32.037-71.582 71.582-71.582h65.292c39.546 0 71.582 32.037 71.582 71.582v128.244c0 39.546-32.037 71.582-71.534 71.582zM568.271 285.964c0-27.843-1.56-31.013-36.523-31.013h-16.043c-34.914 0-34.914 6.29-34.914 31.013v94.696c0 26.819 0 31.061 34.914 31.061h16.043c34.914 0 36.523-5.803 36.523-31.061v-94.696zM822.955 399.579h-65.292c-39.546 0-71.582-32.037-71.582-71.582v-58.807c0-39.546 32.037-71.582 71.582-71.582h65.292c39.546 0 71.582 32.037 71.582 71.582v58.807c0 39.546-32.037 71.582-71.582 71.582zM834.95 285.964c0-27.843-1.609-31.013-36.523-31.013h-16.091c-34.914 0-34.914 6.29-34.914 31.013v25.307c0 26.819 0 31.061 34.914 31.061h16.043c34.914 0 36.523-5.803 36.523-31.061v-25.307zM996.206 111.397c-1.365 0-902.534-0.488-902.534-0.488-34.914 0-35.694 29.013-35.694 63.927v643.511c0 34.914-57.929 39.546-57.929 0v-697.003c0-39.595 32.037-71.631 71.582-71.631 0 0 757.809 0 924.623 0 36.23 0 37.839 61.684-0.049 61.684z" />
<glyph unicode="&#xe60d;" d="M874.106 810.057c-200.021 199.924-524.19 199.924-724.212 0-199.924-200.021-199.924-524.19 0-724.212 200.021-199.924 524.19-199.924 724.212 0 199.924 200.021 199.924 524.239 0 724.212zM189.391 770.609c168.521 168.57 436.078 177.347 615.375 26.917l-642.243-642.292c-150.528 179.249-141.702 446.854 26.868 615.375zM834.609 125.391c-170.959-170.959-443.587-177.396-622.738-20.285l643.023 643.023c157.062-179.2 150.674-451.828-20.285-622.738z" />
<glyph unicode="&#xe60e;" d="M874.301 810.057c-200.119 199.924-524.288 199.924-724.309 0-199.924-200.070-199.924-524.288 0-724.309 200.070-199.973 524.239-199.973 724.309 0 199.875 200.021 199.875 524.239 0 724.309zM189.44 770.56c168.57 168.57 436.175 177.396 615.522 26.917l-145.896-145.896c1.024 40.814 0 84.163-8.777 92.94-14.482 14.482-25.893 29.598-62.366 22.772-20.578-3.901-22.869 20.431-77.239 17.359v-0.049c-76.995-0.78-121.125-31.646-136.728-62.903-13.653-27.355-4.632-147.992-4.632-147.992s-25.015 4.632-10.63-44.52c1.414-4.681 3.218-8.68 5.218-12.239 11.166-23.893 33.207-27.209 34.962-27.453 0.78-2.682 2.146-6.778 4.047-11.41 2.731-7.314 7.022-16.774 12.727-24.43 6.973-9.216 16.091-15.214 25.015-20.431l-105.423-105.374c-15.311-5.461-29.111-10.776-40.082-18.286-2.536-1.122-4.974-2.194-7.509-3.365-13.897-6.144-20.236-26.965-23.162-49.152l-102.010-102.010c-150.528 179.298-141.605 446.952 26.965 615.522zM834.755 125.245c-171.057-171.008-443.685-177.445-622.836-20.285l87.089 87.040h461.97c0 0 8.777 60.465-20.675 102.595-0.683 1.024-1.414 2.048-2.194 2.974-0.195 0.146-0.39 0.293-0.488 0.488-1.512 1.707-3.121 3.218-4.876 4.584-15.701 14.434-35.45 20.773-61.83 30.086-16.091 7.022-36.084 15.262-75.337 30.818-6.778 4.194-12.483 8.923-16.969 14.872-10.191 13.556-7.607 37.205-2.097 50.859 10.874 5.998 22.772 12.922 31.5 24.478 3.121 4.096 5.705 8.728 7.899 13.263 4.779 8.923 7.899 17.944 9.216 22.577 3.413 0.488 23.259 4.291 34.085 25.99 2.389 3.901 4.584 8.241 6.193 13.605 4.681 16.238 5.071 26.234 3.413 32.866l186.075 186.075c157.306-179.249 150.821-451.877-20.139-622.885z" />
<glyph unicode="&#xe60f;" d="M740.206 291.913c-0.731 1.024-1.365 2.048-2.194 2.974-0.146 0.146-0.341 0.293-0.488 0.488-1.463 1.707-3.072 3.267-4.876 4.632-15.75 14.385-35.499 20.724-61.83 30.037-16.043 7.022-36.133 15.262-75.288 30.818-6.778 4.242-12.581 8.923-17.018 14.872-10.191 13.556-7.558 37.205-2.146 50.859 10.923 5.998 22.869 12.971 31.549 24.478 3.17 4.096 5.754 8.68 7.948 13.214 4.779 8.923 7.851 17.993 9.216 22.626 3.365 0.488 23.211 4.291 34.036 25.99 2.438 3.901 4.584 8.29 6.193 13.605 14.385 49.201-10.63 44.617-10.63 44.617s12.727 153.405-4.632 170.764c-14.482 14.531-25.893 29.647-62.366 22.821-20.529-3.901-22.821 20.431-77.239 17.408v-0.098c-76.849-0.829-120.978-31.646-136.582-62.903-13.702-27.307-4.632-148.041-4.632-148.041s-25.015 4.632-10.581-44.617c1.365-4.681 3.218-8.68 5.218-12.239 11.166-23.893 33.207-27.16 34.962-27.404 0.78-2.682 2.194-6.778 4.047-11.41 2.731-7.314 7.022-16.823 12.776-24.381 8.68-11.557 20.724-18.481 31.598-24.478 5.315-13.653 3.511-37.303-6.632-50.859-6.29-8.436-15.165-14.434-26.283-19.846-13.507-5.12-33.841-13.019-58.856-23.308-25.259-9.118-44.666-14.824-60.416-25.6-2.487-1.17-4.925-2.194-7.461-3.413-33.353-14.824-24.527-114.2-24.527-114.2h497.762c0 0 8.826 60.514-20.626 102.595zM1024.244 447.902c0.049 282.77-229.327 512.098-512.098 512.098-282.819 0-512.146-229.278-512.146-512.146 0-282.77 229.327-512.146 512.098-512.098 282.819 0 512.146 229.327 512.146 512.146zM189.391 125.245c-178.225 178.176-178.225 467.139 0 645.364 178.225 178.127 467.090 178.127 645.315-0.098 178.176-178.127 178.176-467.090 0-645.266-178.127-178.225-467.090-178.176-645.315 0z" />
<glyph unicode="&#xe610;" d="M853.967 960h-683.886c-39.595 0-71.631-32.085-71.631-71.582 0 0 0.39-915.456 0.439-915.749 0.049-38.814 53.979-43.301 74.703-29.745 32.67 21.163 320.219 213.187 320.219 213.187s15.165 6.046 21.65 6.437c6.388-0.39 22.577-6.437 22.577-6.437s279.698-192.024 312.32-213.187c20.773-13.507 74.703-9.070 74.752 29.745 0.098 0.293 0.439 915.749 0.439 915.749 0.049 39.448-31.939 71.582-71.582 71.582zM169.448 12.117c-9.704-6.632-11.166 0.683-11.166 6.534-0.098 53.004-0.098 848.213-0.098 848.213 0 34.962 25.112 35.157 60.026 35.157h26.429v-835.438c0-1.268 0.731-2.389 1.024-3.657-36.815-24.674-66.17-44.178-76.215-50.81zM537.893 228.62c-1.755 1.073-15.994 5.218-22.187 5.754v0.195h-0.098v-0.098h-0.098c-0.098 0-0.195 0-0.244 0v0.098c0 0-0.049 0-0.098 0v-0.195c-6.144-0.536-19.31-4.681-21.114-5.754 0 0-100.937-67.34-190.952-127.464v800.866h415.5v-797.257c-86.357 59.099-180.712 123.855-180.712 123.855zM865.816 18.651c0-5.851-1.463-13.166-11.264-6.534-10.24 6.827-40.375 27.355-77.922 52.907 0.049 0.536 0.439 1.024 0.439 1.512v835.486h28.77c34.962 0 60.026-0.195 60.026-35.157 0 0 0.049-795.209-0.049-848.213z" />
<glyph unicode="&#xe611;" d="M661.163 658.115c-15.311 0-27.697 13.117-27.697 29.257v0c0 16.14 12.386 29.208 27.697 29.208h194.853c15.311 0 27.697-13.068 27.697-29.208v0c0-16.14-12.386-29.257-27.697-29.257h-194.853zM661.163 228.669c-15.311 0-27.697 13.068-27.697 29.257v0c0 16.091 12.386 29.208 27.697 29.208h194.853c15.311 0 27.697-13.117 27.697-29.208v0c0-16.189-12.386-29.257-27.697-29.257h-194.853zM661.163 118.174c-15.311 0-27.697 13.166-27.697 29.257v0c0 16.091 12.386 29.257 27.697 29.257h194.853c15.311 0 27.697-13.166 27.697-29.257v0c0-16.091-12.386-29.257-27.697-29.257h-194.853zM380.197 715.362h-78.897v81.042c0 11.362-13.117 20.578-29.257 20.578s-29.208-9.216-29.208-20.578v-80.994h-80.506c-11.313 0-20.529-13.117-20.529-29.257s9.167-29.208 20.529-29.208h80.506v-78.36c0-11.313 13.068-20.529 29.208-20.529s29.257 9.167 29.257 20.529v78.409h78.897c11.313 0 20.529 13.068 20.529 29.208 0 16.091-9.216 29.16-20.529 29.16zM368.006 146.115l-55.881 55.881 57.295 57.295c8.046 8.094 5.266 23.747-6.095 35.157s-27.112 14.19-35.157 6.193l-57.295-57.344-56.905 56.954c-7.997 7.997-23.747 5.218-35.157-6.193-11.41-11.313-14.19-27.16-6.095-35.109l56.905-56.954-55.491-55.442c-7.997-8.046-5.169-23.747 6.144-35.206 11.41-11.362 27.16-14.19 35.206-6.095l55.394 55.394 55.832-55.784c7.997-8.094 23.698-5.315 35.157 6.095 11.362 11.41 14.141 27.16 6.144 35.157zM958.562 960h-893.123c-39.595 0-71.68-32.085-71.68-71.631v-880.738c0-39.595 32.085-71.631 71.68-71.631h893.123c39.595 0 71.68 32.037 71.68 71.631v880.738c0 39.546-32.085 71.631-71.68 71.631zM972.946 834.682v-357.912h-429.251v421.839h398.092c26.868 0 31.159-29.013 31.159-63.927zM82.213 898.609h403.066v-421.839h-434.127v363.52c0 34.962 5.803 58.319 31.061 58.319zM51.151 61.269v357.035h434.078v-421.010h-403.017c-26.819 0.049-31.061 29.111-31.061 63.976zM941.787-2.658h-398.092v421.010h429.251v-362.691c0-34.914-5.803-58.319-31.159-58.319z" />
<glyph unicode="&#xe612;" d="M948.273 866.085h-48.177v22.918c0 39.205-31.744 70.949-70.949 70.949h-64.658c-39.205 0-70.949-31.744-70.949-70.949v-22.967h-360.497v22.967c0 39.205-31.744 70.949-70.949 70.949h-64.756c-39.205 0-70.949-31.744-70.949-70.949v-22.967h-50.615c-39.156 0-70.9-31.744-70.9-70.949v-788.187c0-39.205 31.744-70.949 70.9-70.949h872.497c39.156 0 70.9 31.744 70.9 70.949v788.236c0 39.156-31.744 70.949-70.9 70.949zM476.062 462.19v-205.288h-192.317v205.288h192.317zM476.062 199.070v-206.312h-192.317v206.312h192.317zM533.943 199.070h192.268v-206.312h-192.268v206.312zM533.943 256.951v205.288h192.268v-205.288h-192.268zM784.091 462.19h175.982v-205.288h-175.982v205.288zM754.249 872.424c0 26.575 0 30.769 34.621 30.769h15.896c34.621 0 36.133-5.754 36.133-30.769v-93.915c0-27.55-1.512-30.671-36.133-30.671h-15.896c-34.621 0-34.621 6.242-34.621 30.671v93.915zM187.197 872.424c0 26.575 0 30.769 34.572 30.769h15.945c34.572 0 36.133-5.754 36.133-30.769v-93.915c0-27.55-1.56-30.671-36.133-30.671h-15.945c-34.572 0-34.572 6.242-34.572 30.671v93.915zM65.634 778.508c0 25.893 27.404 30.476 60.757 30.671v-47.299c0-39.107 31.744-70.851 70.949-70.851h64.707c39.205 0 70.949 31.744 70.949 70.851v47.397h360.497v-47.397c0-39.107 31.744-70.851 70.949-70.851h64.658c39.205 0 70.949 31.744 70.949 70.851v47.397h0.585c34.621 0 59.441-5.754 59.441-30.769v-258.487h-894.44v258.487zM225.865 462.19v-205.288h-160.232v205.288h160.232zM65.634 23.528v175.543h160.232v-206.312h-96.89c-34.621 0-63.342 6.242-63.342 30.769zM900.632-7.241h-116.59v206.312h175.982v-175.543c0.049-27.648-24.771-30.769-59.392-30.769z" />
<glyph unicode="&#xe613;" d="M761.173 553.911c0 136.387-110.543 246.979-246.882 246.979-136.387 0-246.93-110.592-246.93-246.979 0-136.241 110.592-246.833 246.93-246.833 136.728-0.049 246.882 108.544 246.882 246.833zM320.073 553.911c0 107.276 86.991 194.17 194.219 194.17s194.219-86.894 194.219-194.17c0-107.179-86.991-194.121-194.219-194.121-107.227-0.049-194.219 86.942-194.219 194.121zM1009.957 141.093c-0.098 0.39-109.47 152.576-146.725 204.264 36.084 60.709 57.1 131.706 57.1 208.603 0 224.256-181.784 406.040-406.040 406.040-224.305 0-406.089-181.784-406.089-406.089 0-74.557 20.431-144.238 55.589-204.264-33.792-47.055-149.602-208.165-149.748-208.506-22.43-31.159 2.633-54.418 27.063-55.784 38.473-1.853 113.859 0.536 113.859 0.536s10.191 0.585 15.506-3.072c5.218-3.901 7.997-13.8 7.997-13.8s21.455-71.924 35.596-107.861c8.972-22.674 39.010-39.058 61.44-7.899 0.293 0.39 110.104 152.332 148.236 205.19 29.16-6.632 59.294-10.533 90.502-10.533 29.794 0 58.807 3.267 86.747 9.314 38.912-53.833 147.163-203.63 147.358-204.020 22.43-31.159 52.517-14.775 61.489 7.899 14.141 35.938 35.645 107.861 35.645 107.861s2.731 9.899 7.997 13.8c5.266 3.657 15.458 3.072 15.458 3.072s75.483-2.389 113.859-0.536c24.478 1.365 49.64 24.625 27.16 55.784zM256.926-4.998c-3.365-4.73-8.68-9.704-12.776 1.122-15.311 40.521-36.571 112.738-36.571 112.738-0.78 1.853-3.023 8.875-7.948 12.824l0.049 0.098c-0.098 0.049-0.195 0.146-0.293 0.244 0 0.098-0.049 0.098-0.049 0.098-0.049 0-0.098 0.098-0.098 0.098-0.146 0-0.293 0.098-0.439 0.195l-0.049-0.098c-5.218 3.462-12.629 3.267-14.677 3.462 0 0-76.166-2.389-119.32-0.731-11.557 0.39-8.533 7.022-5.218 11.703 41.058 57.198 98.645 136.972 127.756 177.201 48.567-66.072 116.541-116.931 195.828-143.994-30.379-41.935-86.455-119.662-126.196-174.958zM159.793 553.911c0 195.828 158.72 354.499 354.548 354.499 195.584 0 354.45-158.622 354.45-354.499 0-195.73-158.866-354.45-354.45-354.45-195.828 0-354.548 158.72-354.548 354.45zM959.342 125.099c-43.203-1.658-119.32 0.731-119.32 0.731-2.048-0.195-9.362 0-14.677-3.462l-0.098 0.098c-0.098-0.098-0.293-0.195-0.39-0.195 0 0-0.049-0.098-0.098-0.098 0 0-0.098 0-0.098-0.098-0.098-0.098-0.195-0.195-0.341-0.244l0.146-0.098c-4.925-3.95-7.168-10.971-7.997-12.824 0 0-21.309-72.216-36.571-112.738-4.096-10.874-9.362-5.851-12.824-1.122-39.253 54.662-94.403 131.072-124.928 173.349 79.823 26.039 148.382 76.069 197.583 141.702 29.842-41.253 85.090-117.906 124.879-173.251 3.316-4.779 6.339-11.362-5.266-11.752z" />
<glyph unicode="&#xe614;" d="M1024.244 448.146c0.049 282.77-229.278 512.098-512.098 512.098s-512.146-229.278-512.146-512.146c0-282.819 229.327-512.146 512.098-512.098 282.868 0 512.146 229.278 512.146 512.146z" />
<glyph unicode="&#xe615;" d="M864.207 377.734v-340.699h-805.839v778.386h563.931c16.579 22.577 30.574 41.691 41.35 56.418-3.023 1.024-6.095 1.95-9.509 1.95h-624.981c-16.091 0-29.16-13.117-29.16-29.208v-836.754c0-16.14 13.068-29.208 29.16-29.208h864.158c16.091 0 29.16 13.068 29.16 29.208v450.365c-17.896-24.82-37.79-52.175-58.27-80.457zM611.864 318.44c-21.504-25.21-23.308-43.106 409.112 557.202 6.875 9.118 1.804 24.381-11.166 34.085-12.922 9.704-28.965 10.191-35.791 1.024-373.126-509.416-360.155-491.813-390.583-534.333-3.511-4.925-8.728-10.581-17.993-3.706-33.402 24.771-197.437 139.605-197.437 139.605-9.167 6.778-24.381 1.853-34.085-11.118s-10.142-29.013-1.024-35.791c0 0 167.546-119.418 208.457-150.723 27.794-21.309 53.053-16.628 70.51 3.755z" />
<glyph unicode="&#xe616;" d="M554.959 242.469l454.168 331.776c17.408 10.191 19.944 38.473 5.461 63.244-14.434 24.966-40.229 36.669-57.685 26.673l-401.993-309.297c0 0-23.893-16.872-43.447-16.872-17.067 0-38.181 16.872-38.181 16.872l-406.187 310.516c-17.359 10.191-43.252-1.707-57.637-26.478-14.629-24.966-12.044-53.346 5.413-63.537l458.411-332.898c4.876-3.023 21.163-15.506 38.181-15.506 18.139 0 38.522 12.483 43.496 15.506z" />
<glyph unicode="&#xe617;" d="M306.42 405.041l331.825-454.168c10.191-17.408 38.473-19.944 63.244-5.461 24.966 14.434 36.718 40.229 26.722 57.685l-309.346 401.944c0 0-16.872 23.893-16.872 43.447 0 17.067 16.872 38.181 16.872 38.181l310.565 406.235c10.191 17.359-1.755 43.252-26.526 57.637-24.966 14.629-53.297 12.044-63.488-5.413l-332.995-458.459c-3.023-4.876-15.458-21.163-15.458-38.181 0-18.091 12.483-38.473 15.458-43.447z" />
<glyph unicode="&#xe618;" d="M717.58 490.91l-331.776 454.217c-10.191 17.408-38.473 19.944-63.244 5.461-24.966-14.385-36.766-40.229-26.722-57.637l309.297-402.042c0 0 16.872-23.893 16.872-43.447 0-17.067-16.872-38.181-16.872-38.181l-310.565-406.235c-10.191-17.359 1.755-43.252 26.526-57.637 24.966-14.629 53.297-12.044 63.488 5.413l332.995 458.411c3.023 4.876 15.458 21.114 15.458 38.181 0 18.188-12.483 38.571-15.458 43.496z" />
<glyph unicode="&#xe619;" d="M469.090 653.58l-454.168-331.825c-17.408-10.191-19.944-38.473-5.461-63.244 14.434-24.966 40.229-36.669 57.685-26.673l401.944 309.297c0 0 23.893 16.872 43.447 16.872 17.067 0 38.181-16.872 38.181-16.872l406.235-310.516c17.359-10.191 43.252 1.707 57.637 26.478 14.629 24.966 12.044 53.346-5.413 63.537l-458.411 332.946c-4.876 3.023-21.114 15.458-38.181 15.458-18.188 0-38.571-12.483-43.496-15.458z" />
<glyph unicode="&#xe61a;" d="M1004.154 795.867c-63.244 39.156-189.781 114.298-254.927 155.404-17.067 10.679-32.427 7.509-32.427-11.947 0-283.16 0.195-1003.227 0.195-1003.227 123.904 0 223.232 0 250.002 0 49.054 0 52.322 16.969 52.322 64.366 0 2.487 0 541.208 0 769.317 0 12.19-1.853 17.847-15.165 26.088zM808.082 11.776c0-6.29-5.071-11.362-11.459-11.362h-27.746c-6.437 0-11.508 5.071-11.508 11.362v184.905c0 6.388 5.071 11.508 11.508 11.508h27.746c6.388 0 11.459-5.12 11.459-11.508v-184.905zM808.082 275.529c0-6.388-5.071-11.557-11.459-11.557h-27.746c-6.437 0-11.508 5.169-11.508 11.557v164.571c0 6.388 5.071 11.508 11.508 11.508h27.746c6.388 0 11.459-5.12 11.459-11.508v-164.571zM808.082 518.949c0-6.339-5.071-11.508-11.459-11.508h-27.746c-6.437 0-11.508 5.169-11.508 11.508v266.045c0 6.339 5.071 11.459 11.508 11.459h27.746c6.388 0 11.459-5.12 11.459-11.459v-266.045zM893.416 11.776c0-6.29-5.169-11.362-11.459-11.362h-27.746c-6.339 0-11.459 5.071-11.459 11.362v184.905c0 6.388 5.12 11.508 11.459 11.508h27.746c6.388 0 11.459-5.12 11.459-11.508v-184.905zM893.416 275.529c0-6.388-5.169-11.557-11.459-11.557h-27.746c-6.339 0-11.459 5.169-11.459 11.557v164.571c0 6.388 5.12 11.508 11.459 11.508h27.746c6.388 0 11.459-5.12 11.459-11.508v-164.571zM893.416 518.949c0-6.339-5.169-11.508-11.459-11.508h-27.746c-6.339 0-11.459 5.169-11.459 11.508v225.475c0 6.339 5.12 11.459 11.459 11.459h27.746c6.388 0 11.459-5.12 11.459-11.459v-225.475zM978.798 11.776c0-6.29-5.12-11.362-11.508-11.362h-27.697c-6.29 0-11.459 5.071-11.459 11.362v184.905c0 6.388 5.169 11.508 11.459 11.508h27.697c6.388 0 11.508-5.12 11.508-11.508v-184.905zM978.798 275.529c0-6.388-5.12-11.557-11.508-11.557h-27.697c-6.29 0-11.459 5.169-11.459 11.557v164.571c0 6.388 5.169 11.508 11.459 11.508h27.697c6.388 0 11.508-5.12 11.508-11.508v-164.571zM978.798 518.949c0-6.339-5.12-11.508-11.508-11.508h-27.697c-6.29 0-11.459 5.169-11.459 11.508v164.62c0 6.339 5.169 11.459 11.459 11.459h27.697c6.388 0 11.508-5.12 11.508-11.459v-164.62zM398.141 287.72v-351.72h268.093v351.72c-77.239 0-169.545 0-268.093 0zM517.266 11.776c0-6.29-5.12-11.362-11.508-11.362h-64.073c-6.29 0-11.459 5.071-11.459 11.362v22.674c0 6.388 5.169 11.459 11.459 11.459h64.073c6.388 0 11.508-5.071 11.508-11.459v-22.674zM517.266 113.25c0-6.388-5.12-11.508-11.508-11.508h-64.073c-6.29 0-11.459 5.12-11.459 11.508v22.577c0 6.388 5.169 11.605 11.459 11.605h64.073c6.388 0 11.508-5.218 11.508-11.605v-22.577zM517.266 214.674c0-6.388-5.12-11.508-11.508-11.508h-64.073c-6.29 0-11.459 5.12-11.459 11.508v22.577c0 6.437 5.169 11.508 11.459 11.508h64.073c6.388 0 11.508-5.071 11.508-11.508v-22.577zM634.831 11.776c0-6.29-5.12-11.362-11.459-11.362h-63.732c-6.339 0-11.508 5.071-11.508 11.362v22.674c0 6.388 5.169 11.459 11.508 11.459h63.732c6.339 0 11.459-5.071 11.459-11.459v-22.674zM634.831 113.25c0-6.388-5.12-11.508-11.459-11.508h-63.732c-6.339 0-11.508 5.12-11.508 11.508v22.577c0 6.388 5.169 11.605 11.508 11.605h63.732c6.339 0 11.459-5.218 11.459-11.605v-22.577zM634.831 214.674c0-6.388-5.12-11.508-11.459-11.508h-63.732c-6.339 0-11.508 5.12-11.508 11.508v22.577c0 6.437 5.169 11.508 11.508 11.508h63.732c6.339 0 11.459-5.071 11.459-11.508v-22.577zM295.4 429.714c-2.584 0-5.51 0-8.436 0 0 23.991 0 171.691 0 191 0 40.619-15.214 52.468-52.419 52.468-2.974 0-5.705 0-8.485 0 0 30.769 0 60.172 0 69.291 0 40.57 5.071 52.419-32.085 52.419-1.024 0-1.609 0-2.536 0v153.6c0 6.339-5.218 11.508-11.557 11.508h-7.266c-6.388 0-11.508-5.12-11.508-11.459v-153.649c-0.975 0-1.56 0-2.536 0-37.303 0-32.134-11.849-32.134-52.419 0-9.021 0-38.473 0-69.291-2.731 0-5.461 0-8.485 0-37.254 0-52.419-11.849-52.419-52.468 0-19.261 0-167.351 0-191.049-2.926 0-5.803 0-8.485 0-37.254 0-52.37-11.703-52.37-52.468 0-20.675 0-374.101 0-376.783 0-47.494 3.413-64.366 52.37-64.366 25.698 0 145.408 0 290.328 0 0 0 0.439 436.663 0.439 441.149 0.049 40.716-15.311 52.517-52.419 52.517zM116.248-8.509c0-6.339-5.12-11.459-11.459-11.459h-27.794c-6.388 0-11.508 5.12-11.508 11.459v42.959c0 6.388 5.12 11.459 11.508 11.459h27.697c6.339 0 11.459-5.071 11.459-11.459l0.098-42.959zM116.248 92.867c0-6.388-5.12-11.459-11.459-11.459h-27.794c-6.388 0-11.508 5.071-11.508 11.459v42.959c0 6.388 5.12 11.605 11.508 11.605h27.697c6.339 0 11.459-5.218 11.459-11.605l0.098-42.959zM116.248 194.292c0-6.29-5.12-11.459-11.459-11.459h-27.794c-6.388 0-11.508 5.169-11.508 11.459v42.959c0 6.437 5.12 11.508 11.508 11.508h27.697c6.339 0 11.459-5.071 11.459-11.508l0.098-42.959zM116.248 295.717c0-6.388-5.12-11.459-11.459-11.459h-27.794c-6.388 0-11.508 5.071-11.508 11.459v43.008c0 6.388 5.12 11.557 11.508 11.557h27.697c6.339 0 11.459-5.169 11.459-11.557l0.098-43.008zM201.582-8.509c0-6.339-5.12-11.459-11.459-11.459h-27.746c-6.388 0-11.508 5.12-11.508 11.459v42.959c0 6.388 5.12 11.459 11.508 11.459h27.746c6.339 0 11.508-5.071 11.508-11.459v-42.959h-0.049zM201.582 92.867c0-6.388-5.12-11.459-11.459-11.459h-27.746c-6.388 0-11.508 5.071-11.508 11.459v42.959c0 6.388 5.12 11.605 11.508 11.605h27.746c6.339 0 11.508-5.218 11.508-11.605v-42.959h-0.049zM201.582 194.292c0-6.29-5.12-11.459-11.459-11.459h-27.746c-6.388 0-11.508 5.169-11.508 11.459v42.959c0 6.437 5.12 11.508 11.508 11.508h27.746c6.339 0 11.508-5.071 11.508-11.508v-42.959h-0.049zM201.582 295.717c0-6.388-5.12-11.459-11.459-11.459h-27.746c-6.388 0-11.508 5.071-11.508 11.459v43.008c0 6.388 5.12 11.557 11.508 11.557h27.746c6.339 0 11.508-5.169 11.508-11.557v-43.008h-0.049zM286.964-8.509c0-6.339-5.12-11.459-11.459-11.459h-27.697c-6.437 0-11.508 5.12-11.508 11.459v42.959c0 6.388 5.071 11.459 11.508 11.459h27.648c6.339 0 11.459-5.071 11.459-11.459v-42.959h0.049zM286.964 92.867c0-6.388-5.12-11.459-11.459-11.459h-27.697c-6.437 0-11.508 5.071-11.508 11.459v42.959c0 6.388 5.071 11.605 11.508 11.605h27.648c6.339 0 11.459-5.218 11.459-11.605v-42.959h0.049zM286.964 194.292c0-6.29-5.12-11.459-11.459-11.459h-27.697c-6.437 0-11.508 5.169-11.508 11.459v42.959c0 6.437 5.071 11.508 11.508 11.508h27.648c6.339 0 11.459-5.071 11.459-11.508v-42.959h0.049zM286.964 295.717c0-6.388-5.12-11.459-11.459-11.459h-27.697c-6.437 0-11.508 5.071-11.508 11.459v43.008c0 6.388 5.071 11.557 11.508 11.557h27.648c6.339 0 11.459-5.169 11.459-11.557v-43.008h0.049z" />
<glyph unicode="&#xe61b;" d="M597.431 569.222l-155.453-221.477c-6.534-9.216-0.975-24.235 12.19-33.402 13.214-9.167 29.16-9.021 35.547 0.244l155.453 221.477c6.485 9.265 1.024 24.186-12.239 33.353-13.166 9.118-29.111 9.021-35.499-0.195zM985.868 712.094l-334.36 235.764c-32.183 22.674-78.36 12.581-103.229-22.626l-448.219-635.611c-24.771-35.157-18.822-82.115 13.361-104.692l334.312-235.861c32.183-22.723 78.36-12.581 103.229 22.626l448.171 635.611c24.869 35.157 18.92 82.066-13.263 104.789zM538.575 178.054l-243.907 173.3c0 0-12.142 7.412-0.39 24.137 52.175 74.459 182.37 254.635 237.080 334.312 7.997 11.654 14.531 8.241 18.53 5.51 50.225-34.718 186.319-129.365 246.589-175.006 8.143-6.144 13.605-10.435 5.51-22.528-34.133-51.054-198.754-281.259-239.86-338.115-9.118-12.678-23.552-1.609-23.552-1.609zM512.878 20.846c-17.408-24.771-39.79-13.166-68.267 6.924l-251.465 177.445c-28.526 20.041-48.128 42.277-32.67 64.219l49.835 70.656 351.476-249.856-48.908-69.388zM940.081 626.615l-54.906-77.873-351.671 249.612 54.126 76.849c16.823 23.845 43.106 10.971 71.534-9.118l251.514-177.396c28.477-20.090 45.251-39.595 29.403-62.074zM37.108-64c-15.262 0-27.599 13.068-27.599 29.111v0c0 16.091 12.337 29.111 27.599 29.111h191.683c15.311 0 27.55-13.019 27.55-29.111v0c0-16.043-12.239-29.111-27.55-29.111h-191.683z" />
<glyph unicode="&#xe61c;" d="M717.58 283.77l-164.23 164.279 164.181 164.23c8.046 8.094 5.266 23.796-6.144 35.255-11.362 11.362-27.209 14.141-35.206 6.144l-164.279-164.279-164.181 164.23c-8.046 7.997-23.796 5.218-35.206-6.144-11.362-11.459-14.141-27.16-6.095-35.255l164.181-164.23-164.279-164.279c-7.997-7.997-5.218-23.796 6.095-35.206 11.459-11.41 27.209-14.19 35.304-6.144l164.23 164.279 164.328-164.279c8.046-8.046 23.796-5.266 35.255 6.144 11.313 11.459 14.092 27.258 6.046 35.255z" />
<glyph unicode="&#xe61d;" d="M717.58 283.77l-164.23 164.279 164.181 164.23c8.046 8.094 5.266 23.796-6.144 35.255-11.362 11.362-27.209 14.141-35.206 6.144l-164.279-164.279-164.181 164.23c-8.046 7.997-23.796 5.218-35.206-6.144-11.362-11.459-14.141-27.16-6.095-35.255l164.181-164.23-164.279-164.279c-7.997-7.997-5.218-23.796 6.095-35.206 11.459-11.41 27.209-14.19 35.304-6.144l164.23 164.279 164.328-164.279c8.046-8.046 23.796-5.266 35.255 6.144 11.313 11.459 14.092 27.258 6.046 35.255zM874.057 810.057c-199.924 199.924-524.19 199.924-724.114 0-199.973-199.973-199.973-524.19 0-724.114 199.875-199.973 524.19-199.973 724.114 0s199.924 524.19 0 724.114zM189.342 125.44c-178.176 178.176-178.176 467.090 0 645.218 178.225 178.127 466.993 178.127 645.218-0.098 178.127-178.078 178.127-466.944 0-645.12s-466.993-178.176-645.218 0z" />
<glyph unicode="&#xe61e;" d="M267.605 441.661c-10.679 0-19.261 12.288-19.261 27.55v0c0 15.165 8.582 27.502 19.261 27.502h492.3c10.679 0 19.31-12.337 19.31-27.502v0c0-15.262-8.68-27.55-19.31-27.55h-492.3zM505.563 627.931c-10.679 0-19.31 12.288-19.31 27.502v0c0 15.214 8.68 27.502 19.31 27.502h254.342c10.679 0 19.31-12.288 19.31-27.502v0c0-15.214-8.68-27.502-19.31-27.502h-254.342zM278.43 708.681c7.363 17.847 31.159 40.131 47.543 47.592 16.433 7.461 7.363 27.794-9.606 20.821-25.356-10.386-49.688-25.698-64.707-59.441-24.576-55.101-9.021-98.987 27.502-98.987 23.747 0 39.546 19.505 39.546 36.718 0 20.529-16.579 37.254-37.157 37.254-1.999 0-3.852-0.878-5.803-1.17-0.049 6.29 0.683 12.337 2.682 17.213zM385.512 708.681c7.412 17.847 31.11 40.131 47.543 47.543 16.384 7.461 7.363 27.794-9.606 20.821-25.356-10.386-49.64-25.698-64.805-59.441-24.478-55.052-8.923-98.938 27.55-98.938 23.796 0 39.595 19.505 39.595 36.718 0 20.529-16.677 37.254-37.254 37.254-2.048 0-3.755-0.878-5.705-1.17 0 6.29 0.731 12.337 2.682 17.213zM926.33 960h-828.514c-37.303 0-67.486-30.232-67.486-67.34v-642.584c0-37.254 30.184-67.486 67.486-67.486h116.785v-227.182c0-10.728 12.337-19.358 27.502-19.358 4.389 0 8.387 0.878 11.995 2.146 4.389 1.122 8.436 2.877 11.752 6.29l238.153 238.153h422.278c37.205 0 67.389 30.232 67.389 67.486v642.487c0 37.157-30.184 67.389-67.34 67.389zM910.434 240.372c0 0-316.416 0-406.821 0-19.651 0-26.917-7.753-45.251-26.185-0.195-0.098-188.172-188.221-188.172-188.221v177.054c0 25.6-14.824 37.352-41.643 37.352-41.643 0-114.981 0-114.981 0-32.914 0-29.208 27.209-29.208 60.123v541.55c0 32.914-3.706 60.221 29.208 60.221h796.867c32.963 0 29.208-27.307 29.208-60.221v-541.55c0-32.963 3.755-60.123-29.208-60.123z" />
<glyph unicode="&#xe61f;" d="M689.835 460.727c0 100.742-81.627 182.37-182.37 182.37s-182.37-81.579-182.37-182.37 81.676-182.321 182.321-182.321c100.791 0 182.418 81.579 182.418 182.321zM384 460.727c-0.049 68.267 55.247 123.514 123.465 123.514s123.514-55.296 123.514-123.514c0-68.12-55.296-123.416-123.563-123.416-68.169 0-123.465 55.296-123.416 123.416zM934.961 578.341h-82.505c-3.511 10.581-7.607 20.968-12.093 31.061l65.975 65.975c26.965 26.965 26.965 70.802 0 97.816l-73.63 73.533c-26.965 27.014-70.802 27.014-97.816 0.049l-61.489-61.489c-14.385 7.314-29.355 13.653-44.715 19.115v86.406c0 38.181-30.964 69.144-69.193 69.144h-104.058c-38.229 0-69.193-31.013-69.193-69.144v-86.357c-15.458-5.461-30.427-11.8-44.812-19.163l-61.44 61.538c-27.014 26.965-70.851 26.965-97.816-0.049l-73.582-73.582c-27.063-27.014-27.063-70.802-0.049-97.768l65.975-65.975c-4.486-10.094-8.533-20.48-12.093-31.11h-73.387c-38.181 0-69.193-30.964-69.193-69.193v-103.96c0-38.229 31.013-69.193 69.193-69.193h75.971c5.12-14.141 11.069-27.941 17.847-41.204l-74.216-74.216c-27.063-27.063-27.063-70.802 0-97.914l73.533-73.484c27.063-27.112 70.851-27.112 97.914 0l78.604 78.653c9.021-3.998 18.237-7.558 27.55-10.923v-111.811c0-38.229 30.964-69.193 69.193-69.193h104.058c38.229 0 69.193 30.964 69.193 69.193v111.811c9.265 3.316 18.53 6.924 27.453 10.923l78.604-78.653c27.014-27.112 70.851-27.112 97.914 0l73.533 73.484c27.063 27.112 27.063 70.851 0 97.914l-74.167 74.167c6.827 13.214 12.727 27.063 17.847 41.204h85.090c38.229 0 69.242 30.964 69.242 69.193v104.009c0 38.229-30.964 69.193-69.242 69.193zM948.76 457.021c0-33.694-6.095-61.733-29.94-61.733h-110.592c-9.070-40.619-25.551-77.922-48.616-110.836l93.233-94.306c16.872-16.92 1.414-41.009-22.528-64.805l-3.998-4.145c-23.893-23.796-43.203-38.766-62.22-19.7l-95.525 96.012c-29.452-18.091-62.61-31.403-97.524-38.717v-137.362c0-26.868-24.186-29.891-57.978-29.891h-5.754c-33.743 0-61.781 6.095-61.781 29.891v137.655c-35.547 7.314-69.096 20.236-99.084 38.619l-95.72-96.207c-19.017-19.066-38.327-4.096-62.171 19.7l-3.998 4.145c-23.942 23.796-39.4 47.884-22.528 64.805l92.55 93.72c-23.162 33.061-39.302 70.607-48.128 111.421h-101.23c-25.844 0-29.891 28.038-29.891 61.733v5.705c0 33.743 5.559 57.929 29.891 57.929h100.254c7.412 35.889 20.431 70.558 38.912 100.84l-83.627 83.237c-17.213 17.213-4.047 38.278 19.895 62.171l3.998 4.047c23.845 23.845 46.568 40.814 64.853 22.479l81.481-80.506c33.987 23.845 72.411 41.838 114.639 50.42v111.275c0 25.893 27.941 29.94 61.733 29.94h5.705c33.792 0 57.978-5.559 57.978-29.94v-112.591c41.204-8.826 80.018-25.064 113.323-48.469l80.945 79.872c18.286 18.286 41.009 1.317 64.902-22.479l3.998-4.047c23.845-23.893 37.108-44.958 19.846-62.171l-83.529-82.993c18.627-30.33 31.549-65.097 38.814-101.035h109.422c26.917 0 29.94-24.235 29.94-57.929v-5.754z" />
<glyph unicode="&#xe620;" d="M874.106 810.057c-199.924 199.924-524.19 199.924-724.066 0-200.021-200.021-200.021-524.19 0-724.163 199.924-199.875 524.19-199.875 724.066 0 199.875 199.973 199.875 524.142 0 724.163zM189.44 125.391c-178.176 178.176-178.176 467.090 0 645.169s466.944 178.127 645.12-0.049c178.176-178.127 178.176-466.993 0-645.12-178.078-178.176-466.944-178.176-645.12 0zM513.463 734.379c0-109.519 0-462.117 0-571.002 0-48.469 43.398-32.085 64.024-27.746 144.92 30.184 253.708 158.622 253.708 312.369 0 154.526-109.812 283.355-255.561 312.808-20.090 4.047-62.171 16.725-62.171-26.429z" />
<glyph unicode="&#xe621;" d="M465.725 181.077c-11.41 0-20.675 13.117-20.675 29.403v0c0 16.238 9.216 29.403 20.675 29.403h322.414c11.41 0 20.626-13.166 20.626-29.403v0c0-16.286-9.167-29.403-20.626-29.403h-322.414zM465.725 350.525c-11.41 0-20.675 13.117-20.675 29.403v0c0 16.189 9.216 29.403 20.675 29.403h322.414c11.41 0 20.626-13.214 20.626-29.403v0c0-16.286-9.167-29.403-20.626-29.403h-322.414zM779.313 797.184h-431.884c-39.741 0-72.070-32.28-72.070-72.070v-717.093c0-39.79 32.28-72.070 72.070-72.070h559.006c39.79 0 72.021 32.232 72.021 72.070v613.083c0 10.289-1.365 14.287-9.314 22.235-23.406 23.406-133.169 115.127-166.766 145.31-7.948 7.168-17.896 8.533-23.064 8.533zM858.014-5.632l-456.606-0.683c-35.157 0-64.317-3.95-64.317 31.256v683.301c0 35.206 29.208 31.208 64.317 31.208h346.941v-108.495c0-23.893 19.31-43.252 43.252-43.252h126.83v-562.81c-0.049-35.157-25.21-30.525-60.416-30.525zM191.39 149.918c-13.458 0-23.552 0-23.552 0-35.157 0-60.514-1.365-60.514 27.453v693.687c0 35.206 29.208 31.208 64.317 31.208h346.892c0 0 0-8.875 0-15.896 0-21.455 16.14-37.352 41.594-37.352 31.013 0 76.215 0 89.771 0 11.118 0 19.066 15.116 8.143 25.502-31.695 30.184-69.388 62.464-85.48 76.946-7.948 7.119-17.896 8.485-23.064 8.485h-431.835c-39.79 0-72.070-32.28-72.070-72.070v-727.381c0-39.79 32.232-72.119 72.070-72.119 0 0 55.735 0 75.581 0 13.458 0 28.574 11.654 28.574 30.769-0.049 19.066-15.116 30.769-30.427 30.769z" />
<glyph unicode="&#xe622;" d="M185.149 816.396c29.94 0 22.479-27.453 34.962-27.453s309.833 0 332.312 0c22.479 0 11.362-35.84 28.77-28.721 33.694 13.702 40.862 6.534 48.762-6.29 9.899-16.238-12.483-27.453-12.483-34.962 0-7.461 0-17.506 44.861-5.022 16.969 4.681 27.502-9.996 27.502-37.449 0-15.067 44.958-12.532 44.958 0 0 22.43 0 102.449 0 112.396 0 9.996 47.543 15.019 47.543 2.487s-7.363-127.415 0-134.924c7.509-7.509-42.472-22.479-27.404-39.985s17.408-39.985 37.547-24.966c19.992 14.97 37.449 24.966 34.962 34.962-2.487 10.045 2.487 27.502 12.483 34.962s47.543 37.498 59.977 44.958c12.386 7.461 14.97-7.461 29.94 0 15.019 7.509 12.483 29.989 9.996 34.962-3.56 7.119 0 22.43 15.019 32.524 15.067 9.996 19.992 9.996 32.475-5.022 12.581-15.019 52.419-47.494 29.989-67.486s-49.981-39.838-47.64-47.299c2.584-7.509 15.116-30.037 0-49.981-14.97-19.992-49.835-52.517-49.835-52.517l7.412-94.939c0 0 20.041-17.506 27.453-29.989 7.461-12.483-17.506-37.547-47.543-62.464s-55.003-52.37-42.472-62.464c12.483-9.899 27.404-19.895 15.067-34.865-12.581-15.067-33.743-21.309-17.457-37.595 16.238-16.189 39.838-34.914 39.838-49.932 0-14.97 0-64.951 0-79.921 0-15.067-34.962-12.483-34.962 9.996 0 22.43-17.408 27.404-29.989 27.404-12.386 0-94.939 102.498-94.939 102.498s-39.887-2.584-59.928-2.584c-19.944 0-12.483-24.966-34.962-24.966s-82.31 0-100.011 0c-17.408 0-17.408-22.479-14.872-35.011 2.389-12.483 5.022-19.944-5.071-29.94-9.996-9.996-29.989-17.506-29.989-27.502 0-9.899 19.992-24.966 12.581-32.475-7.509-7.461-20.090-12.483-30.086 2.536s-49.981 25.015-49.981 39.936c0 15.019 5.022 45.007 5.022 45.007s-27.453 32.524-34.962 39.936c-7.509 7.509-19.992 17.457-34.962 5.071-14.97-12.483-17.506-15.067-32.524-5.071s-47.494 52.468-57.49 57.539c-9.996 5.071-7.509 5.071-39.985 5.071s-47.494 0-59.977 0-14.97 32.475-19.992 39.887c-5.022 7.509-14.97 35.011-22.479 35.011s-45.007-9.947-47.494-2.487c-2.438 7.461 2.487 39.936 2.487 39.936s-57.49 52.468-67.486 59.928c-9.996 7.461 2.487 82.408 0 89.966-2.341 7.461-22.333 2.438-19.895 17.408 2.487 14.97 0 84.894 0 102.449s22.528 15.019 22.528 39.985c0 25.015 0 89.966 0 89.966s22.479 4.974 35.011 4.974c12.434 0 19.944 22.479 37.449 22.479 17.457 0.098 89.966 0.049 89.966 0.049z" />
<glyph unicode="&#xe623;" d="M266.386 828.44l-219.038-17.506c-40.716-4.632-57.88-95.427-40.716-92.306 17.213 3.121 153.307 21.845 162.718 18.773 8.143-2.779 72.948-59.733 97.036-74.703v165.742zM294.571 663.235c36.084 8.533 108.105 28.379 131.462 35.206v101.425l-97.085-7.656-26.575 39.058-7.802-0.634v-167.4zM787.407 759.881v-124.148h77.678c-24.43 42.228-56.418 93.428-77.678 124.148zM898.584 565.224c2.536 2.097-5.071 18.871-17.701 42.228h-93.428v-150.187h129.024c-18.091 37.498-37.986 80.75-39.741 86.065-3.218 9.362 12.434 14.141 21.845 21.894zM945.591 400.945c-1.804 1.804-7.607 13.068-15.262 28.184h-142.872v-143.896h228.645c-13.214 38.571-38.863 109.422-42.472 114.298-4.681 6.193-21.797-4.779-28.038 1.414zM907.995 257.048v-169.058c0.878-3.706 1.414-6.729 1.414-7.802 0-1.024-0.683-2.926-1.414-5.022v-15.214c11.41 0.293 45.544 2.292 46.86 9.167 1.609 7.899 32.866 18.822 40.765 40.814 7.168 20.139 27.794 122.002 28.379 147.066h-116.005zM879.909 257.048h-123.514c14.287-31.793 36.376-79.823 40.57-86.114 5.266-7.997 60.66-26.624 82.944-35.596v121.71zM759.272 285.233v143.896h-138.24c0.195-4.632 0.878-7.997 2.048-9.314 8.728-8.582 57.929-111.031 72.070-122.1 13.995-10.874 48.567-12.483 48.567-12.483h15.555zM759.272 635.733v151.942c-10.045 0.341-23.357 1.365-23.357 1.365s15.701 45.446 7.802 45.446-101.717 1.512-101.717 1.512l-17.262-20.382-170.667-13.41v-102.595c23.991-4.047 53.199-15.36 53.199-15.36l52.907-48.518h199.095zM622.494 457.265h136.875v150.187h-168.424l11.849-11.020c0 0 18.871-46.958 25.064-59.441 3.95-7.753-2.243-48.274-5.364-79.726z" />
<glyph unicode="&#xe624;" d="M551.546 802.645c0-21.841-17.705-39.546-39.546-39.546s-39.546 17.705-39.546 39.546c0 21.841 17.705 39.546 39.546 39.546s39.546-17.705 39.546-39.546zM907.557 446.586c0-21.814-17.683-39.497-39.497-39.497s-39.497 17.683-39.497 39.497c0 21.814 17.683 39.497 39.497 39.497s39.497-17.683 39.497-39.497zM195.486 446.586c0-21.814-17.683-39.497-39.497-39.497s-39.497 17.683-39.497 39.497c0 21.814 17.683 39.497 39.497 39.497s39.497-17.683 39.497-39.497zM313.49 669.915c0-21.814-17.683-39.497-39.497-39.497s-39.497 17.683-39.497 39.497c0 21.814 17.683 39.497 39.497 39.497s39.497-17.683 39.497-39.497zM512 960c-282.77 0-512-229.23-512-512 0-282.722 229.278-512 512-512 282.77 0 512 229.23 512 512s-229.23 512-512 512zM512 904.168c251.855 0 456.168-204.215 456.168-456.168 0-52.858-9.46-103.473-26.039-150.723h-860.355c-16.53 47.299-25.99 97.865-25.99 150.723 0 251.904 204.264 456.168 456.216 456.168zM512-8.216c-176.518 0-329.289 100.45-405.163 246.979h810.179c-75.825-146.578-228.596-246.979-405.016-246.979zM542.086 403.432c38.181 44.812 241.128 253.269 241.128 253.269s17.018 21.894-3.706 42.715c-22.43 22.43-42.569 3.657-42.569 3.657s-253.659-188.026-281.307-213.333c-56.027-51.444 37.059-144.384 86.455-86.309z" />
<glyph unicode="&#xe625;" d="M855.479 548.206c0 30.769-59.685 30.769-59.685 0 0-0.536 0-523.166 0-523.166 0-35.206-25.259-30.622-60.367-30.622l-457.387-0.634c-35.206 0-64.414-3.95-64.414 31.256 0 0 0 523.069 0 523.166 0 30.769-62.025 30.769-61.83-0.39v-539.697c0-39.887 32.329-72.119 72.168-72.119h559.787c39.838 0 72.168 32.232 72.168 72.119v538.868c-0.098 0.439-0.439 0.536-0.439 1.219zM533.26 138.606c0-11.459-13.117-20.675-29.355-20.675v0c-16.238 0-29.452 9.167-29.452 20.675v322.901c0 11.41 13.214 20.675 29.452 20.675v0c16.238 0 29.355-9.216 29.355-20.675v-322.901zM686.031 138.606c0-11.459-13.166-20.675-29.452-20.675v0c-16.238 0-29.452 9.167-29.452 20.675v322.901c0 11.41 13.214 20.675 29.452 20.675v0c16.286 0 29.452-9.216 29.452-20.675v-322.901zM380.635 138.606c0-11.459-13.166-20.675-29.452-20.675v0c-16.189 0-29.403 9.167-29.403 20.675v322.901c0 11.41 13.214 20.675 29.403 20.675v0c16.335 0 29.452-9.216 29.452-20.675v-322.901zM854.552 828.977h-169.155v66.024c0 39.838-32.28 64.951-72.168 64.951h-219.38c-39.838 0-72.119-25.112-72.119-64.951v-66.024h-152.235c-39.887 0-72.168-32.28-72.168-72.119v-94.891c0-39.79 5.266-42.959 45.154-42.959h739.718c39.741 0 44.568 3.121 44.568 42.959v94.842c-0.049 39.887-32.378 72.168-72.216 72.168zM376.198 874.325c0 25.941 11.166 32.719 39.058 32.719h178.176c27.843 0 37.352-6.778 37.352-32.719v-45.349h-254.586v45.349zM864.5 693.809c0-14.336-1.902-18.042-13.605-18.042h-678.766c-13.751 0-12.581 4.779-12.581 18.042v48.128c0 16.774 9.167 30.33 34.865 30.33h632.198c26.331 0 37.888-13.556 37.888-30.33v-48.128z" />
<glyph unicode="&#xe626;" d="M952.369 216.771h-11.41v592.018c0 39.497-32.037 71.582-71.631 71.582h-714.508c-39.546 0-71.631-32.085-71.631-71.582v-592.067h-11.557c-39.546 0.049-71.631-32.037-71.631-71.582v-57.88c0-39.595 32.085-71.68 71.631-71.68h880.738c39.595 0 71.631 32.085 71.631 71.68v57.88c0 39.546-32.037 71.631-71.631 71.631zM144.53 792.015c0 26.77 2.974 31.013 37.888 31.013h659.31c34.962 0 39.448-5.851 39.448-31.013v-574.659h-736.646v574.659zM964.218 104.082c0-27.989-4.486-31.159-39.448-31.159h-825.539c-34.962 0-37.888 6.339-37.888 31.159v24.283c0 26.77 2.974 30.964 37.888 30.964h825.588c34.962 0 39.448-5.803 39.448-30.964v-24.283z" />
<glyph unicode="&#xe627;" d="M809.35 960h-594.7c-45.885 0-83.188-37.254-83.188-83.139l-117.37-686.568v-171.057c0-45.982 37.303-83.237 83.188-83.237h829.391c45.982 0 83.237 37.254 83.237 83.237v168.619l-117.419 689.006c0 45.885-37.157 83.139-83.139 83.139zM246.735 893.391h530.627c40.57 0 38.083-7.070 45.787-35.986l113.225-597.285h-846.214l112.494 597.285c8.826 30.818 3.462 35.986 44.081 35.986zM894.781 2.609h-765.513c-40.57 0-43.983 7.314-43.983 36.084v153.502h855.186v-153.502c0-32.427-5.12-36.084-45.69-36.084zM867.474 93.794c0-25.315-20.522-45.836-45.836-45.836s-45.836 20.522-45.836 45.836c0 25.315 20.522 45.836 45.836 45.836s45.836-20.522 45.836-45.836zM711.534 93.794c0-25.315-20.522-45.836-45.836-45.836s-45.836 20.522-45.836 45.836c0 25.315 20.522 45.836 45.836 45.836s45.836-20.522 45.836-45.836z" />
<glyph unicode="&#xe628;" d="M948.809 235.496h-156.818c-39.205 0-70.997-31.793-70.997-71.046v-157.452c0-39.253 31.793-71.046 70.997-71.046h156.818c39.253 0 70.997 31.793 70.997 71.046v157.452c0 39.253-31.793 71.046-70.997 71.046zM960.658 23.576c0-27.502-24.869-30.671-59.49-30.671h-55.93c-34.621 0-63.39 6.193-63.39 30.671v124.197c0 26.673 28.77 30.769 63.39 30.769h55.93c34.621 0 59.49-5.705 59.49-30.769v-124.197zM948.809 597.699h-156.818c-39.205 0-70.997-31.793-70.997-70.949v-157.452c0-39.253 31.793-71.046 70.997-71.046h156.818c39.253 0 70.997 31.793 70.997 71.046v157.452c0 39.156-31.793 70.949-70.997 70.949zM960.658 385.877c0-27.502-24.869-30.671-59.49-30.671h-55.93c-34.621 0-63.39 6.193-63.39 30.671v124.245c0 26.526 28.77 30.671 63.39 30.671h55.93c34.621 0 59.49-5.705 59.49-30.671v-124.245zM948.809 960h-156.818c-39.205 0-70.997-31.793-70.997-70.949v-157.452c0-39.205 31.793-70.997 70.997-70.997h156.818c39.253 0 70.997 31.793 70.997 70.997v157.452c0 39.156-31.793 70.949-70.997 70.949zM960.658 748.178c0-27.599-24.869-30.769-59.49-30.769h-55.93c-34.621 0-63.39 6.242-63.39 30.769v124.245c0 26.575 28.77 30.72 63.39 30.72h55.93c34.621 0 59.49-5.705 59.49-30.72v-124.245zM590.409 235.496h-156.77c-39.253 0-71.046-31.793-71.046-71.046v-157.452c0-39.253 31.793-71.046 71.046-71.046h156.77c39.253 0 70.997 31.793 70.997 71.046v157.452c0 39.253-31.744 71.046-70.997 71.046zM602.258 23.576c0-27.502-24.869-30.671-59.49-30.671h-55.93c-34.621 0-63.39 6.193-63.39 30.671v124.197c0 26.673 28.77 30.769 63.39 30.769h55.93c34.621 0 59.49-5.705 59.49-30.769v-124.197zM590.409 597.699h-156.77c-39.253 0-71.046-31.793-71.046-70.949v-157.452c0-39.253 31.793-71.046 71.046-71.046h156.77c39.253 0 70.997 31.793 70.997 71.046v157.452c0 39.156-31.744 70.949-70.997 70.949zM602.258 385.877c0-27.502-24.869-30.671-59.49-30.671h-55.93c-34.621 0-63.39 6.193-63.39 30.671v124.245c0 26.526 28.77 30.671 63.39 30.671h55.93c34.621 0 59.49-5.705 59.49-30.671v-124.245zM590.409 960h-156.77c-39.253 0-71.046-31.793-71.046-70.949v-157.452c0-39.205 31.793-70.997 71.046-70.997h156.77c39.253 0 70.997 31.793 70.997 70.997v157.452c0 39.156-31.744 70.949-70.997 70.949zM602.258 748.178c0-27.599-24.869-30.769-59.49-30.769h-55.93c-34.621 0-63.39 6.242-63.39 30.769v124.245c0 26.575 28.77 30.72 63.39 30.72h55.93c34.621 0 59.49-5.705 59.49-30.72v-124.245zM232.058 235.496h-156.818c-39.205 0-70.997-31.793-70.997-71.046v-157.452c0-39.253 31.793-71.046 70.997-71.046h156.77c39.205 0 70.997 31.793 70.997 71.046v157.452c0.049 39.253-31.744 71.046-70.949 71.046zM243.858 23.576c0-27.502-24.82-30.671-59.49-30.671h-55.881c-34.621 0-63.39 6.193-63.39 30.671v124.197c0 26.673 28.77 30.769 63.39 30.769h55.93c34.621 0 59.49-5.705 59.49-30.769v-124.197zM232.058 597.699h-156.818c-39.205 0-70.997-31.793-70.997-70.949v-157.452c0-39.253 31.793-71.046 70.997-71.046h156.77c39.205 0 70.997 31.793 70.997 71.046v157.452c0.049 39.156-31.744 70.949-70.949 70.949zM243.858 385.877c0-27.502-24.82-30.671-59.49-30.671h-55.881c-34.621 0-63.39 6.193-63.39 30.671v124.245c0 26.526 28.77 30.671 63.39 30.671h55.93c34.621 0 59.49-5.705 59.49-30.671v-124.245zM232.058 960h-156.818c-39.205 0-70.997-31.793-70.997-70.949v-157.452c0-39.205 31.793-70.997 70.997-70.997h156.77c39.205 0 70.997 31.793 70.997 70.997v157.452c0.049 39.156-31.744 70.949-70.949 70.949zM243.858 748.178c0-27.599-24.82-30.769-59.49-30.769h-55.881c-34.621 0-63.39 6.242-63.39 30.769v124.245c0 26.575 28.77 30.72 63.39 30.72h55.93c34.621 0 59.49-5.705 59.49-30.72v-124.245z" />
<glyph unicode="&#xe629;" d="M970.947 960c-1.902 0-505.125 0-505.125 0v-732.453h557.69c0 0 0 675.547 0 679.79 0 40.814-15.214 52.663-52.565 52.663zM865.914 485.547c-56.027-53.297-113.079-75.435-123.075-76.751 0 0-68.559 23.454-124.733 76.751-24.576 23.406-35.84 71.68-40.57 120.978h328.85c-4.584-49.396-15.799-97.524-40.472-120.978zM908.776 644.657h-333.531c-2.097 60.221 3.365 112.933 3.365 112.933s23.357-44.178 75.191-44.178c45.739 0 79.921 37.205 87.381 40.521v0.731c0 0 0.341-0.098 0.731-0.293 0.634 0.195 0.926 0.293 0.926 0.293v-0.634c7.363-3.365 41.594-40.57 87.381-40.57 51.785 0 75.24 44.178 75.24 44.178s5.413-52.712 3.316-112.981zM162.377 127.732h-161.89c0-64.853 0-126.683 0-127.22 0-47.543 3.413-64.512 52.565-64.512 30.232 0 109.324 0 109.324 0v191.732zM465.822 127.732v-191.732c0 0 457.338 0 505.125 0 49.25 0 52.565 17.067 52.565 64.463 0 0.926 0 62.513 0 127.171l-557.69 0.098zM53.053 960c-37.303 0-52.565-11.849-52.565-52.565 0-4.242 0-679.79 0-679.79h161.89v732.355c0 0-98.109 0-109.324 0zM296.229 960h38.181v-58.466h-38.181v58.466zM296.229 807.375h38.181v-109.324h-38.181v109.324zM296.229 603.989h38.181v-109.373h-38.181v109.373zM296.229 400.555h38.181v-109.324h-38.181v109.324zM296.229 197.071h38.181v-109.275h-38.181v109.275zM296.229-6.315h38.181v-57.685h-38.181v57.685z" />
<glyph unicode="&#xe62a;" d="M71.192 166.302v-154.136c0-42.082 34.133-76.166 76.166-76.166h729.186c42.13 0 76.215 34.085 76.215 76.166v154.136c0 42.13-61.733 37.205-61.733 0v-97.134c0-37.157-0.488-68.072-37.693-68.072h-682.423c-37.205 0-38.034 30.915-38.034 68.072v97.134c0 37.205-61.684 42.13-61.684 0zM490.545 186.49l-221.769 156.184c-10.533 6.046-11.995 22.967-3.267 37.839 8.631 14.775 24.040 21.943 34.426 15.799l178.469-131.462v673.743c0 11.849 13.848 21.358 31.159 21.358 17.115 0 31.061-9.557 31.061-21.358v-672.67l178.274 131.267c10.386 6.095 25.844-1.024 34.426-15.945 8.631-14.775 7.119-31.646-3.218-37.742l-221.818-157.013c-2.926-1.658-14.238-7.266-19.651-7.266-6.388 0-15.214 5.608-18.091 7.266z" />
<glyph unicode="&#xe62b;" d="M991.037-64h-957.976c-15.945 0-28.867 12.922-28.867 28.818v966.363c0 15.896 12.922 28.818 28.867 28.818h957.976c15.848 0 28.77-12.922 28.77-28.818v-966.363c0-15.896-12.922-28.818-28.77-28.818zM61.83-6.363h900.389v908.727h-900.389v-908.727zM512 288.841c-7.412 0-14.775 2.877-20.334 8.436l-260.632 260.681c-8.338 8.241-10.776 20.626-6.29 31.403 4.437 10.776 15.019 17.798 26.624 17.798v0h521.314c11.703 0 22.089-7.022 26.673-17.798 4.389-10.776 1.902-23.211-6.29-31.403l-260.681-260.681c-5.705-5.559-13.019-8.436-20.382-8.436zM320.902 549.522l191.147-191.147 191.098 191.147h-382.245z" />
<glyph unicode="&#xe62c;" d="M496.25 433.079c49.054 57.539 174.373 232.399 174.373 232.399 6.729 8.923 1.755 23.845-11.020 33.402-12.678 9.509-28.379 10.045-35.109 1.024 0 0-121.027-160.67-156.282-209.969-3.413-4.779-8.533-10.289-17.652-3.56-32.719 24.235-68.852 51.054-68.852 51.054-8.923 6.729-23.893 1.755-33.353-11.020-9.557-12.678-9.996-28.331-1.024-35.011 0 0 39.546-31.305 79.774-61.976 27.16-20.919 52.029-16.335 69.144 3.657zM973.824 612.23c-8.485 3.462-17.896 5.51-27.599 5.51h-53.346v271.75c0 38.961-31.549 70.51-70.51 70.51h-626.249c-38.961 0-70.51-31.549-70.51-70.51 0 0 0.146-145.067 0.293-271.701h-48.030c-9.752 0-19.212-2.048-27.648-5.51-25.502-10.874-43.398-35.791-43.398-65.048v0-540.721c0-34.085 24.381-62.464 56.71-69.047 4.681-0.975 9.46-1.463 14.336-1.463h868.303c4.876 0 9.606 0.488 14.287 1.463 32.28 6.583 56.661 34.962 56.661 69.047v540.721c0 29.257-17.896 54.174-43.301 65zM892.879 557.324h46.373c15.604 0 17.164-14.775 7.802-23.357-3.511-3.17-24.186-20.382-54.174-45.056v68.413zM184.369 872.96c0 34.475 24.674 29.94 59.051 29.94h526.092c34.377 0 62.952 4.535 62.952-29.94 0 0 0-418.182 0-433.445-107.422-87.771-257.999-209.091-304.421-241.323-12.19-8.436-17.896-6.924-30.135 0-41.058 22.967-202.85 153.99-313.588 245.565 0.049 7.558 0.049 429.202 0.049 429.202zM84.748 557.324h41.204c0.049-24.283 0.049-46.226 0.098-65.097-27.648 23.162-46.47 39.156-49.152 41.789-9.801 9.704-6.242 23.308 7.851 23.308zM64.561 14.555c-0.536 6.924 0 453.096 0 453.096l184.564-151.406c0 0-134.632-264.338-158.135-306.81-8.582-15.506-26.429-16.286-26.429 5.12zM149.309-3.584l143.555 285.598 179.736-137.362c22.723-22.626 57.003-22.723 79.921 0l177.201 135.314 142.531-283.55h-722.944zM959.439 14.555c0-23.016-17.701-20.675-26.478-5.9-38.473 64.512-159.549 307.59-159.549 307.59l186.027 150.967c0 0 0.536-445.733 0-452.657z" />
<glyph unicode="&#xe62d;" d="M998.302 746.764c40.814 57.198 31.013 95.378-62.171 161.743-92.891 66.267-133.851 65.731-176.030 6.632v0l-502.394-705.048c-12.337-17.262-25.454-231.424-25.454-231.424-0.195-19.407 33.548-42.813 57.539-38.327 0 0 188.952 76.166 206.019 99.962l502.491 706.462zM793.161 881.298c28.428 39.887 54.955 39.010 118.93-6.583 61.489-43.934 75.093-69.047 44.568-111.811l-35.011-49.201-164.474 117.224 35.986 50.371zM317.879 214.577l411.502 577.243 164.425-117.224-411.453-577.243-164.474 117.224zM275.212 56.588l15.165 119.418 163.596-116.687-113.566-55.881-65.195 53.15zM29.452-64.049c-15.311 0-27.697 13.166-27.697 29.208v0c0 16.189 12.386 29.208 27.697 29.208h118.686c15.36 0 27.697-13.019 27.697-29.208v0c0-16.043-12.337-29.208-27.697-29.208h-118.686z" />
<glyph unicode="&#xe62e;" d="M949.053 185.563h-49.25v112.347c0 20.578-10.191 28.721-23.357 30.574-0.585 0.098-0.683 0.585-1.414 0.585h-2.877c-0.488 0-0.878 0.195-1.317 0.195-0.585 0-0.975-0.195-1.414-0.195h-325.925v82.018h124.684c39.253 0 71.046 31.842 71.046 70.997v107.422c0 39.253-31.793 71.046-71.046 71.046h-307.2c-39.302 0-71.046-31.793-71.046-71.046v-107.471c0-39.156 31.744-70.997 71.046-70.997h124.587v-82.018h-327.778c-0.146 0-0.098-0.098-0.244-0.098-0.878 0-1.512 0.293-2.438 0.293-15.945 0-28.965-7.802-28.965-31.354v-112.347h-51.2c-39.205 0-70.997-31.793-70.997-71.046v-107.471c0-39.205 31.793-70.997 70.997-70.997h156.965c39.253 0 70.997 31.793 70.997 71.046v107.471c0 39.253-31.744 71.046-70.997 71.046h-47.787v85.528h301.446v-85.528h-52.029c-39.205 0-70.997-31.793-70.997-71.046v-107.471c0-39.253 31.793-71.046 70.997-71.046h156.818c39.253 0 71.046 31.793 71.046 71.046v107.471c0 39.253-31.793 71.046-71.046 71.046h-46.86v85.528h298.277v-85.528h-49.737c-39.253 0-71.046-31.793-71.046-71.046v-107.471c0-39.253 31.793-71.046 71.046-71.046h156.965c39.253 0 71.046 31.793 71.046 71.046v107.471c0.049 39.253-31.744 71.046-70.997 71.046zM350.793 498.664v74.216c0 26.624 28.77 30.818 63.439 30.818h206.263c34.67 0 59.538-5.803 59.538-30.818v-74.167c0-27.599-24.869-30.72-59.538-30.72h-206.263c-34.67-0.049-63.439 6.242-63.439 30.671zM243.663 97.841v-74.167c0-27.599-24.869-30.769-59.49-30.769h-56.076c-34.621 0-63.439 6.29-63.439 30.769v74.167c0 26.624 28.818 30.769 63.439 30.769h56.027c34.67 0 59.538-5.656 59.538-30.769zM602.307 97.841v-74.167c0-27.599-24.869-30.769-59.538-30.769h-56.027c-34.67 0-63.439 6.29-63.439 30.769v74.167c0 26.624 28.77 30.769 63.439 30.769h56.027c34.67 0 59.538-5.656 59.538-30.769zM960.853 23.723c0-27.599-24.869-30.769-59.538-30.769h-55.979c-34.572 0-63.342 6.29-63.342 30.769v74.167c0 26.624 28.77 30.769 63.342 30.769h55.979c34.67 0 59.538-5.656 59.538-30.769v-74.167zM676.376 950.833c-12.581-9.362-31.451-24.283-50.859-37.108-13.41-8.826-24.771-1.268-24.771-1.268l-65.097 36.815c-5.656 3.121-14.287 6.485-21.358 6.242-7.119 0.195-15.701-3.121-21.358-6.242l-65.243-36.815c0 0-11.166-7.558-24.674 1.268-19.407 12.824-38.278 27.746-50.859 37.108-21.992 16.335-61.44 12.532-62.171-25.064 0 0 31.061-140.824 46.275-193.975 5.608-19.797 30.818-19.797 30.818-19.797h294.376c0 0 25.259 0 30.866 19.797 15.214 53.15 46.275 193.975 46.275 193.975-0.78 37.595-40.326 41.399-62.22 25.064zM653.605 784.067c0 0-3.998-14.092-21.992-14.092-34.67 0-199.973 0-234.594 0-18.139 0-22.040 14.092-22.040 14.092l-31.549 109.617 48.030-42.277c12.629-10.191 24.381-14.092 38.571-7.070 0 0 44.861 26.624 63.732 39.156 6.778 4.389 13.653 5.9 20.48 5.022 6.827 0.878 13.751-0.585 20.529-5.022 18.92-12.532 63.683-39.156 63.683-39.156 14.19-7.070 25.99-3.121 38.668 7.070l47.884 42.277-31.403-109.617z" />
<glyph unicode="&#xe62f;" d="M836.559 754.469h-113.42v205.531h-422.619v-205.58h-113.371c-40.131 0-72.753 1.317-72.753-38.229v-393.899h794.868v360.399c0 39.643-32.573 71.778-72.704 71.778zM414.72 749.397l59.928-59.928 141.214 141.214 39.643-39.643-180.907-180.907-99.523 99.621 39.643 39.643zM807.253 420.45h-590.799v262.632h84.114v-185.246h422.668v185.246h84.114v-262.68h-0.098zM120.393 251.685c0 0 0-260.827 0-263.119 0-38.766 2.828-52.565 42.91-52.565 66.706 0 77.19 0.098 180.419 0.098s456.363-0.098 523.020-0.098c39.985 0 42.862 13.8 42.862 52.565 0 3.267 0 263.070 0 263.070l-789.211 0.049z" />
<glyph unicode="&#xe630;" d="M886.053 144.311c-7.119 4.925-19.212 9.899-33.597 15.019l1.024 3.998c4.827 18.237-7.168 37.352-26.868 42.569l-73.874 19.31c-19.651 5.169-39.4-5.656-44.227-23.893l-0.731-2.828c-8.68 2.389-16.579 4.632-23.406 6.827v89.819c0 15.506-5.754 31.939-26.819 28.818-7.412-1.122-20.187-6.242-22.577-7.022-1.073-0.341-79.97-37.352-79.97-37.352-5.51-2.536-13.214-8.582-17.896-19.456l-25.112-44.763-25.161 44.763c-4.632 10.923-12.386 16.969-17.896 19.456 0 0-78.848 37.010-79.921 37.352-2.341 0.78-15.165 5.851-22.626 7.022-21.016 3.121-26.722-13.263-26.722-28.818v-89.819c-6.827-2.194-14.824-4.437-23.454-6.827l-0.731 2.828c-4.827 18.237-24.625 29.111-44.227 23.893l-73.874-19.31c-19.651-5.218-31.598-24.332-26.819-42.569l1.024-3.998c-14.482-5.071-26.478-10.094-33.646-15.019-31.988-22.333-30.037-37.157-29.94-53.346v-88.747c0.293-36.962 30.33-66.56 67.048-66.219 0 0 168.326 0 288.963 0 21.65 0 56.222 0 95.963 0 120.588 0 288.914 0 288.914 0 36.815-0.341 66.804 29.257 67.096 66.219v88.747c0.098 16.238 2.048 31.013-29.94 53.346zM854.796 21.918c-0.195-24.674-14.19-27.404-45.836-27.112 0 0-139.947 0-248.93 0-38.229 0-72.753 0-95.963 0-109.032 0-248.93 0-248.93 0-31.695-0.293-45.739 2.438-45.934 27.112v55.052c-0.146 16.774 5.461 20.285 16.482 27.307 0.878 0.634 2.243 1.122 4.145 1.95 8.631-9.46 22.43-14.092 36.474-10.435l73.874 19.358c14.385 3.706 24.478 15.019 27.112 27.989 22.333 5.998 42.033 11.605 53.736 16.043 0 0 0.049 0.293 0.098 0.39 12.532 2.828 17.067 10.289 16.969 19.017l-0.39 69.973 36.571-16.53c0 0 37.352-64.414 50.761-85.285 12.337-19.212 41.204-19.212 54.077 0 13.848 20.626 50.761 85.285 50.761 85.285l36.62 16.53-0.439-69.973c-0.098-8.728 4.486-16.189 16.969-19.017 0.049-0.098 0.049-0.39 0.049-0.39 11.752-4.437 31.451-10.045 53.833-16.043 2.584-13.019 12.727-24.283 27.063-27.989l73.874-19.358c14.043-3.657 27.843 0.975 36.523 10.435 1.853-0.829 3.267-1.317 4.145-1.95 11.020-7.022 16.628-10.533 16.433-27.307v-55.052zM758.053 733.355l22.089 80.896c11.459 31.451 9.411 43.886-1.024 54.272-49.445 49.64-146.822 91.477-266.581 91.477-0.049 0-0.195 0-0.244 0 0 0-0.146 0-0.244 0-119.759 0-217.234-41.838-266.679-91.477-10.338-10.338-12.483-40.326-0.975-71.68l22.089-63.488c-19.066-12.142-34.475-41.496-26.088-62.074 9.752-23.845 32.085-44.227 64.366-60.318 0.098-15.896 1.414-32.134 5.315-50.225-21.065-7.217-43.203-41.691-21.845-102.302 10.338-29.111 40.521-34.621 59.246-35.352 38.083-69.047 113.128-120.296 163.011-120.686 49.688-0.39 125.562 49.542 164.766 117.711 18.676 0.439 49.006 5.51 59.733 34.377 22.382 60.221 0.78 95.037-20.090 102.595 4.486 19.358 4.681 36.523 3.852 53.394 32.866 16.189 55.637 36.669 65.39 60.757 8.387 20.626-7.022 49.981-26.088 62.123zM671.744 584.192c-7.217-50.469-5.559-46.080 21.455-59.88 18.676-9.557 14.921-65.243-31.403-53.979-22.674 5.608-18.042-1.17-24.576-14.726 0 0-43.203-103.131-126.781-102.4-84.358 0.829-124.489 104.643-124.489 104.643-6.29 13.605-1.658 20.285-24.43 15.116-46.421-10.435-49.298 45.3-30.379 54.516 27.16 13.312 30.964 9.265 22.382 59.49-0.439 2.536-0.731 4.242-1.024 5.803 43.252-12.581 96.597-19.992 159.5-19.992h0.049c0.146 0 0.293 0 0.439 0h0.049c63.049 0 116.541 7.461 159.842 20.139 0.049-2.389-0.049-4.925-0.634-8.728zM728.795 668.209c-31.256-31.208-147.017-52.078-216.357-52.078-72.509 0-185.539 20.87-216.747 52.078-12.532 12.483-10.728 28.526 12.483 37.449 57.149-18.725 156.672-25.941 203.825-25.941 50.274 0 175.202 16.384 204.264 25.941 23.259-8.875 25.064-24.966 12.532-37.449zM710.071 750.86c-32.573-7.314-86.455-16.579-141.8-20.773v47.543c0 22.967-18.725 41.691-41.643 41.691h-29.355c-22.967 0-41.594-18.725-41.594-41.691v-47.445c-55.442 4.194-108.788 13.361-141.214 20.675l-27.112 90.648c47.445 42.52 158.037 72.216 224.695 72.216 65.097 0 177.64-29.696 225.085-72.216l-27.063-90.648z" />
<glyph unicode="&#xe631;" d="M948.224 866.182h-48.128v22.869c0 39.205-31.744 70.949-70.949 70.949h-64.707c-39.205 0-70.949-31.744-70.949-70.949v-22.869h-360.497v22.869c0 39.205-31.744 70.949-70.949 70.949h-64.756c-39.156 0-70.949-31.744-70.949-70.949v-22.869h-50.615c-39.205 0-70.949-31.744-70.949-70.949v-788.285c0-39.205 31.793-70.949 70.949-70.949h872.497c39.205 0 70.949 31.744 70.949 70.949v788.285c0 39.205-31.744 70.949-70.949 70.949zM754.298 872.424c0 26.575 0 30.769 34.572 30.769h15.945c34.572 0 36.133-5.754 36.133-30.769v-93.818c0-27.648-1.56-30.769-36.133-30.769h-15.945c-34.572 0-34.572 6.242-34.572 30.769v93.818zM187.148 872.424c0 26.575 0 30.769 34.572 30.769h15.994c34.572 0 36.181-5.754 36.181-30.769v-93.818c0-27.648-1.56-30.769-36.181-30.769h-15.994c-34.572 0-34.572 6.242-34.572 30.769v93.818zM960.073 23.576c0-27.648-24.82-30.818-59.441-30.818h-771.706c-34.572 0-63.342 6.29-63.342 30.818v488.643h894.537v-488.643zM960.073 570.051h-894.488v208.555c0 25.893 27.404 30.379 60.806 30.671v-47.299c0-39.205 31.744-70.949 70.949-70.949h64.756c39.205 0 70.949 31.744 70.949 70.949v47.445h360.497v-47.397c0-39.205 31.744-70.949 70.949-70.949h64.707c39.205 0 70.949 31.744 70.949 70.949v47.397h0.585c34.621 0 59.441-5.754 59.441-30.769v-208.603zM524.581 435.712c-8.192 0-15.506-2.438-20.821-6.242-0.244-0.195-0.683-0.098-0.878-0.293l-107.861-107.325c-4.047-4.096-6.193-25.112 5.071-36.328 11.313-11.313 31.744-8.728 35.889-4.584l59.733 59.392v-242.347c0-11.215 12.873-20.334 28.916-20.334 15.945 0 28.916 9.118 28.916 20.334v317.44c0 11.166-13.019 20.285-28.965 20.285z" />
<glyph unicode="&#xe632;" d="M473.624 352.037c0-17.99-14.583-32.573-32.573-32.573s-32.573 14.583-32.573 32.573c0 17.99 14.583 32.573 32.573 32.573s32.573-14.583 32.573-32.573zM412.282 457.947c-4.096 36.376 8.046 72.948 41.789 113.42 30.33 35.694 47.202 62.025 47.202 92.404 0 34.377-20.334 53.833-62.903 54.467-24.283 0-46.909-10.435-63.39-19.944 0 0-24.332-18.237-38.278-0.878-19.115 23.991 16.189 45.934 16.189 45.934 22.235 16.189 60.66 26.965 96.451 26.965 77.629 0 112.689-47.884 112.689-99.182 0-45.836-25.649-78.946-58.027-117.37-29.647-35.011-40.472-61.489-38.424-95.866 0 0 1.999-23.357-26.039-23.357-29.403 0.049-27.258 23.406-27.258 23.406zM858.453 66.682h-823.832c-15.945 0-28.867 12.922-28.867 28.867v835.633c0.049 15.896 12.971 28.818 28.867 28.818h823.832c15.896 0 28.818-12.922 28.818-28.818v-835.682c0-15.945-12.873-28.818-28.818-28.818zM63.39 124.27h766.293v778.094h-766.293v-778.094zM989.428-64h-729.088c-15.896 0-28.818 12.922-28.818 28.818s12.922 28.818 28.818 28.818h700.221v700.27c0 15.896 12.922 28.818 28.867 28.818 15.848 0 28.77-12.922 28.77-28.818v-729.088c0-15.896-12.922-28.818-28.77-28.818z" />
<glyph unicode="&#xe633;" d="M365.666 709.461h296.765c0 0 25.405 0 31.11 19.554 15.36 52.517 46.616 191.634 46.616 191.634-0.78 37.205-40.57 40.911-62.659 24.869-12.678-9.314-31.598-24.040-51.249-36.669-13.507-8.68-25.064-1.219-25.064-1.219l-65.634 36.328c-5.705 3.072-14.434 6.339-21.504 6.193-7.119 0.195-15.799-3.072-21.504-6.193l-65.78-36.328c0 0-11.215-7.412-24.917 1.219-19.505 12.678-38.571 27.404-51.249 36.669-22.187 16.14-61.928 12.386-62.708-24.771 0 0 31.305-139.166 46.714-191.683 5.705-19.602 31.061-19.602 31.061-19.602zM1004.69 189.416h-102.010v110.836c0 20.334-10.289 28.282-23.503 30.184-0.585 0.146-0.78 0.683-1.414 0.683h-2.974c-0.585 0-0.975 0.195-1.219 0.195-0.585 0-1.024-0.195-1.512-0.195h-328.46v80.36h169.448c15.994 0 29.062 12.873 29.062 28.721v190.659c0 15.799-13.068 28.672-29.062 28.672h-397.068c-15.994 0-29.062-12.873-29.062-28.672v-190.659c0-15.896 13.068-28.721 29.062-28.721h169.106v-80.408h-330.362c-0.146 0-0.098-0.146-0.293-0.146-0.878 0-1.463 0.341-2.389 0.341-16.091 0-29.257-7.753-29.257-30.964v-110.885h-103.619c-10.63 0-19.212-12.873-19.212-28.721v-190.61c0-15.799 8.582-28.672 19.212-28.672h263.119c10.679 0 19.31 12.873 19.31 28.672v190.61c0 15.848-8.631 28.721-19.31 28.721h-101.083v84.407h303.835v-84.407h-104.692c-10.63 0-19.212-12.873-19.212-28.721v-190.61c0-15.799 8.582-28.672 19.212-28.672h263.119c10.679 0 19.261 12.873 19.261 28.672v190.61c0 15.848-8.582 28.721-19.261 28.721h-99.962v84.407h300.812v-84.407h-102.741c-10.679 0-19.261-12.873-19.261-28.721v-190.61c0-15.799 8.582-28.672 19.261-28.672h263.119c10.63 0 19.31 12.873 19.31 28.672v190.61c-0.049 15.848-8.728 28.721-19.31 28.721z" />
<glyph unicode="&#xe634;" d="M945.64 960h-867.279c-38.912 0-70.51-31.549-70.51-70.51v-882.932c0-39.010 31.598-70.558 70.51-70.558h867.23c38.961 0 70.51 31.549 70.51 70.51v882.981c0.049 38.961-31.549 70.51-70.461 70.51zM131.218 903.582h767.025c34.377 0 59.051-5.705 59.051-30.622v-157.452h-889.027v157.452c0 26.429 28.574 30.622 62.952 30.622zM898.292-7.582h-767.074c-34.426 0-62.952 6.242-62.952 30.622v634.929h889.027v-634.929c0.049-27.502-24.625-30.622-59.002-30.622zM286.379 510.903h-64.317c-38.961 0-70.51-31.549-70.51-70.51v-255.317c0-38.912 31.549-70.461 70.51-70.461h64.317c38.961 0 70.51 31.549 70.51 70.461v255.317c0 38.961-31.598 70.51-70.51 70.51zM298.13 201.557c0-27.404-1.56-30.574-35.938-30.574h-15.848c-34.377 0-34.377 6.242-34.377 30.574v222.306c0 26.429 0 30.622 34.377 30.622h15.848c34.377 0 35.938-5.754 35.938-30.622v-222.306zM547.45 381.928h-64.317c-38.961 0-70.51-31.549-70.51-70.51v-126.342c0-38.912 31.549-70.461 70.51-70.461h64.268c38.961 0 70.558 31.549 70.558 70.461v126.342c0.049 38.912-31.598 70.51-70.51 70.51zM559.25 201.557c0-27.404-1.609-30.574-35.986-30.574h-15.848c-34.377 0-34.377 6.242-34.377 30.574v93.282c0 26.429 0 30.622 34.377 30.622h15.848c34.377 0 35.986-5.754 35.986-30.622v-93.282zM810.082 313.515h-64.268c-38.961 0-70.51-31.549-70.51-70.51v-57.929c0-38.912 31.549-70.461 70.51-70.461h64.268c38.961 0 70.51 31.549 70.51 70.461v57.929c0.049 38.961-31.549 70.51-70.51 70.51zM821.833 201.557c0-27.404-1.56-30.574-35.938-30.574h-15.799c-34.377 0-34.377 6.242-34.377 30.574v24.917c0 26.429 0 30.622 34.377 30.622h15.799c34.377 0 35.938-5.754 35.938-30.622v-24.917z" />
<glyph unicode="&#xe635;" d="M874.106 810.057c-200.021 199.924-524.19 199.924-724.163 0-199.924-200.021-199.924-524.142 0-724.114 199.973-199.924 524.19-199.924 724.163 0 199.924 199.973 199.924 524.093 0 724.114zM189.391 125.44c-178.176 178.176-178.176 467.042 0 645.12s467.042 178.127 645.218-0.049c178.127-178.127 178.176-466.993 0-645.071-178.225-178.176-467.090-178.176-645.218 0zM549.888 203.752c0-21.814-17.683-39.497-39.497-39.497s-39.497 17.683-39.497 39.497c0 21.814 17.683 39.497 39.497 39.497s39.497-17.683 39.497-39.497zM446.61 643.535c4.73-58.758 32.475-314.904 32.475-314.904s3.413-27.502 32.817-27.502c31.695 0 32.719 27.502 32.719 27.502s22.577 277.602 24.186 314.953c3.267 76.020-128.293 75.874-122.197-0.049z" />
<glyph unicode="&#xe636;" d="M710.022 647.192c-57.246 0-135.704 0-135.704 0v42.423c0 39.838 26.429 49.201 45.007 49.201s62.171 0 90.697 0c155.648 0 153.551 220.55 0 220.55-39.302 0-133.754 0.634-133.754 0.634-166.961 0-237.519-111.226-237.519-214.552v-98.206c0 0-15.36 0-49.883 0-118.93 0-123.075-225.768 0-225.768 42.813 0 49.883 0 49.883 0 0-231.96 0-253.513 0-392.094 0-126.586 235.569-122.441 235.569 0 0 127.756 0 162.914 0 392.094 0 0 99.913 0 135.704 0 153.551 0 149.406 225.719 0 225.719zM710.022 471.211c-22.138 0-124.538 0-169.545 0-17.896 0-21.309-7.509-21.309-23.893 0-172.178 0-309.833 0-407.552 0-64.366-118.248-68.462-118.248 0 0 106.008 0 234.252 0 407.552 0 17.115-4.389 23.893-22.284 23.893-20.334 0-50.274 0-71.046 0-74.703 0-72.606 124.489 0 124.489 16.823 0 47.835 0 69.486 0 13.848 0 23.845 7.217 23.845 24.381 0 26.819 0 107.325 0 107.325 0 82.651 28.867 179.395 162.426 179.395 0 0 98.548-0.488 130.048-0.488 93.379 0 91.331-119.808 0-119.808-22.869 0-80.75 0-95.573 0-45.495 0-78.653-29.062-78.653-89.283 0 0 0-56.125 0-74.85 0-13.263 6.485-26.722 23.552-26.722 41.691 0 132.145 0 167.253 0 80.994 0.049 83.042-124.44 0.049-124.44z" />
<glyph unicode="&#xe637;" d="M730.6 911.531c-122.246 0-216.015-66.706-218.551-68.267-2.584 1.56-96.305 68.267-218.502 68.267-124.002 0-293.498-107.52-293.498-338.895 0-235.13 288.573-461.922 473.673-576.951 24.576-15.214 53.102-15.214 78.946 1.414 183.296 118.394 471.381 341.333 471.381 575.537-0.049 231.375-169.399 338.895-293.449 338.895zM473.137 66.487c-158.818 102.888-422.327 293.205-422.327 501.37 0 183.832 113.323 283.209 258.877 283.209 70.607 0 137.704-38.522 174.129-55.54 17.164-7.997 39.205-8.241 56.174-0.488 37.059 16.969 106.203 55.979 177.493 56.027 148.675 0 252.489-101.425 252.489-283.209 0-212.456-260.73-401.457-419.889-502.101-42.277-26.673-49.445-17.164-76.946 0.731z" />
<glyph unicode="&#xe638;" d="M723.968 960h-549.303c-39.156 0-70.997-31.793-70.997-71.095v-881.859c0-39.253 31.842-71.046 70.997-71.046h674.572c39.302 0 71.095 31.793 71.095 71.046v779.313c0 10.191-1.365 14.092-9.167 21.943-23.162 23.064-131.365 113.566-164.474 143.311-7.851 7.022-17.603 8.387-22.723 8.387zM801.646-6.558l-573.733-0.585c-34.67 0-63.439-3.901-63.439 30.818v848.603c0 34.767 28.77 30.818 63.439 30.818h465.481v-106.984c0-23.552 19.115-42.667 42.715-42.667h124.977v-729.819c0.049-34.718-24.82-30.184-59.441-30.184zM705.146 606.818c-8.094 10.581-18.822 12.142-32.085 12.142h-66.853c-11.264 0-20.382-13.019-20.382-28.965 0-16.043 9.118-28.965 20.382-28.965h39.351l-48.421-251.026-55.491 287.354c-0.195 1.414-0.293 2.828-0.878 4.096l-0.585 2.779c-2.097 9.801-13.897 15.311-27.453 14.19-13.556 1.122-25.356-4.389-27.453-14.19l-0.585-2.828c-0.536-1.268-0.634-2.682-0.829-4.096l-55.93-287.354-56.905 294.278c-2.292 11.020-16.92 17.164-32.573 13.848s-26.478-14.872-24.088-25.893l89.283-410.624c2.097-10.094 10.533-20.139 24.527-18.725 13.995-1.414 24.283 8.631 26.38 18.725l58.222 292.913 60.075-292.913c2.097-10.094 10.533-20.139 24.527-18.725 13.995-1.414 23.454 8.631 25.551 18.725l83.822 389.998c1.463 6.778 6.29 25.064-1.609 35.255z" />
<glyph unicode="&#xe639;" d="M723.968 960h-549.254c-39.205 0-70.997-31.793-70.997-71.095v-881.859c0-39.253 31.793-71.046 70.997-71.046h674.572c39.302 0 71.095 31.793 71.095 71.046v779.313c0 10.191-1.365 14.092-9.167 21.943-23.162 23.064-131.365 113.566-164.474 143.311-7.899 7.022-17.652 8.387-22.772 8.387zM801.646-6.558l-573.733-0.585c-34.67 0-63.439-3.901-63.439 30.818v848.603c0 34.767 28.77 30.818 63.439 30.818h465.481v-106.984c0-23.552 19.115-42.667 42.715-42.667h124.977v-729.819c0.049-34.718-24.82-30.184-59.441-30.184zM708.023 367.982c-67.243 29.989-113.128-14.238-113.128-14.238s-22.187 4.632-58.075 48.469c-26.478 32.329-19.261 67.145-15.506 131.852 3.17 56.222-9.167 101.864-56.856 92.453-72.411-14.238-22.089-129.317-19.505-155.112 2.194-21.894-5.9-46.665-21.943-86.601-23.308-57.588-91.185-144.14-125.416-175.738-15.75-14.726-15.506-27.843-7.119-36.864 11.020-11.849 29.794 3.901 48.469 22.626 25.844 25.795 60.757 75.63 73.728 91.136 12.922 15.458 155.697 29.696 171.252 29.696s71.534-25.454 110.592-31.013c58.856-8.485 55.54 64.61 13.507 83.334zM471.479 586.386c24.527 3.316 7.119-111.080 7.119-111.080s-31.061 107.91-7.119 111.080zM490.252 342.723c-19.212-3.413-48.518-10.338-48.518-10.338s16.14 28.477 21.358 45.3c3.023 9.752 17.408 51.688 17.408 51.688s12.288-32.28 21.358-45.202c9.118-12.971 33.597-33.597 33.597-33.597s-30.964-5.218-45.202-7.851zM688.713 324.047c-21.358-1.17-58.807 14.238-58.807 14.238s33.548 7.119 51.005 1.95c14.482-4.34 18.725-15.555 7.802-16.189z" />
<glyph unicode="&#xe63a;" d="M724.066 960h-549.303c-39.253 0-71.046-31.793-71.046-71.095v-881.859c0-39.253 31.793-71.046 71.046-71.046h674.523c39.302 0 71.095 31.793 71.095 71.046v779.313c0 10.191-1.365 14.092-9.167 21.943-23.162 23.064-131.267 113.566-164.376 143.311-7.899 7.022-17.652 8.387-22.772 8.387zM801.694-6.558l-573.781-0.585c-34.67 0-63.439-3.901-63.439 30.818v848.603c0 34.767 28.77 30.818 63.439 30.818h465.627v-106.984c0-23.552 19.066-42.667 42.569-42.667h124.977v-729.819c0.049-34.718-24.82-30.184-59.392-30.184zM545.012 398.507l155.063 179.005c7.070 8.826 2.487 23.991-10.045 33.89-12.581 9.947-28.428 10.874-35.401 2.048l-147.456-171.837-137.899 173.446c-7.022 8.777-22.821 7.851-35.352-2.097-12.581-9.899-17.115-25.064-10.094-33.89l148.334-179.005-129.999-155.112c-6.973-8.826-33.694-35.011-16.482-62.61 11.752-18.822 29.989-17.408 36.815-17.408 0.439-0.049 116.736 0 116.736 0 11.215 0 20.382 12.922 20.382 28.965 0 15.945-9.167 29.013-20.382 29.013h-79.823l109.568 132.535 146.383-184.418c6.973-8.875 22.821-7.851 35.352 2.048 12.532 9.947 17.164 25.161 10.094 33.938l-155.794 191.488z" />
<glyph unicode="&#xe63b;" d="M911.165 808.302c-23.162 23.064-131.365 113.566-164.474 143.311-7.851 7.070-17.603 8.387-22.723 8.387h-549.254c-39.205 0-70.997-31.793-70.997-71.095v-881.859c0-39.253 31.793-71.046 70.997-71.046h674.572c39.302 0 71.095 31.793 71.095 71.046v779.313c0 10.191-1.414 14.092-9.216 21.943zM861.135 23.625c0-34.718-24.869-30.184-59.538-30.184l-573.684-0.585c-34.67 0-63.439-3.901-63.439 30.818v848.603c0 34.767 28.77 30.818 63.439 30.818h203.532v-74.801h76.166v74.801h185.832v-106.984c0-23.552 19.115-42.667 42.715-42.667h124.977v-729.819zM507.611 753.396h-76.166v74.216h-76.117v-76.117h76.117v-74.167h76.166zM507.611 603.112h-76.166v74.216h-76.117v-76.215h76.117v-74.216h76.166zM526.287 389.339c-3.462 7.217-10.435 12.532-18.725 16.579v46.811h-76.117v74.167h-76.117v-76.117h76.166v-44.227c-9.070-4.145-16.53-9.704-20.285-17.213-11.166-22.43-29.891-59.538-42.423-104.936-9.362-34.085-45.3-150.577 99.474-151.211v-0.049c0.146 0 0.244 0.049 0.39 0.049s0.244-0.049 0.39-0.049v0.049c144.725 0.634 108.885 117.126 99.474 151.211-12.581 45.446-31.305 82.359-42.228 104.936zM468.602 170.008c-27.014 0-77.775 10.191-77.775 48.957 0 41.886 50.761 49.006 77.775 49.006 27.112 0 78.848-3.121 78.848-49.006 0-37.157-51.736-48.957-78.848-48.957z" />
<glyph unicode="&#xe63c;" d="M723.968 960h-549.303c-39.156 0-70.997-31.793-70.997-71.095v-881.859c0-39.253 31.842-71.046 70.997-71.046h674.572c39.302 0 71.095 31.793 71.095 71.046v779.313c0 10.191-1.365 14.092-9.167 21.943-23.162 23.064-131.365 113.566-164.474 143.311-7.851 7.022-17.603 8.387-22.723 8.387zM801.597-6.558l-573.684-0.585c-34.67 0-63.439-3.901-63.439 30.818v848.603c0 34.767 28.77 30.818 63.439 30.818h465.481v-106.984c0-23.552 19.115-42.667 42.715-42.667h124.977v-729.819c0.049-34.718-24.82-30.184-59.49-30.184z" />
<glyph unicode="&#xe63d;" d="M1023.951 805.425c1.024 29.842-7.607 37.303-30.379 37.303h-965.778c-25.649 0-27.746-11.362-27.746-37.303 0 0 0-120.344 0-120.93 0-21.211 4.194-35.352 27.746-35.352h88.942l284.184-287.403v-266.581c0-39.253 31.89-41.984 71.241-41.984h78.946c39.351 0 71.241 2.779 71.241 41.984v266.191l284.331 287.793h86.845c25.112 0 30.379 16.482 30.379 35.352v120.93zM891.465 707.267c-14.921 0-21.26-6.778-29.794-16.482-104.887-118.784-290.621-301.836-290.621-301.836-0.78-1.317-6.388-13.41-6.388-19.7v-221.525c0-34.767-0.488-33.548-35.206-33.548h-35.304c-34.816 0-35.547-1.219-35.547 33.548v221.525c0 6.095-5.413 18.286-6.193 19.7 0 0-182.174 184.905-290.621 301.836-8.875 9.509-14.97 16.482-29.842 16.482 0 0-43.349 0-53.102 0-18.091 0-21.163 3.413-21.163 28.526 0 5.022 0 13.605 0 13.605 0 34.767 0.439 32.378 35.255 32.378h837.778c34.767 0 35.547 2.389 35.547-32.378 0 0 0-8.582 0-13.605 0-30.135-2.536-28.526-23.747-28.526-24.137 0-51.054 0-51.054 0z" />
<glyph unicode="&#xe63e;" d="M641.122 411.624c-7.314 15.214-28.282 47.982-96.549 79.628v112.25c20.578-9.021 38.668-23.942 47.982-33.548 0 0 20.090-27.502 47.543 0 17.896 17.944-6.193 39.253-6.193 39.253-17.506 17.652-32.573 30.135-45.397 37.595-12.093 7.022-26.965 12.483-43.934 16.823v48.762c0 11.41-13.166 20.626-29.306 20.626-16.238 0-29.306-9.167-29.306-20.626v-44.52c-30.915-1.95-56.515-12.678-76.898-32.524-20.87-20.431-31.256-45.007-31.256-73.679 0-17.213 2.536-34.231 11.752-48.811 18.822-29.452 58.466-48.372 96.402-63.732v-158.379c-27.307 6.095-57.003 22.089-84.504 53.248 0 0-18.968 26.38-47.494 2.097-23.357-19.797 4.145-46.568 4.145-46.568 20.48-21.894 42.715-39.546 66.56-52.955 16.92-9.216 37.4-15.311 61.245-18.286v-49.981c0-11.313 13.068-20.578 29.306-20.578 16.14 0 29.306 9.216 29.306 20.578v52.078c26.917 6.095 74.606 23.991 94.501 67.243 19.212 41.643 10.435 96.646 2.097 114.005zM447.976 600.527c9.021 10.191 22.674 13.751 38.034 13.653v-99.377c-34.475 14.677-77.044 41.594-38.034 85.723zM577.829 317.611c-5.9-10.386-17.993-18.871-33.256-24.283v131.462c22.772-12.239 62.854-55.052 33.256-107.179zM952.174 863.208h-880.299c-39.692 0-71.875-32.134-71.875-71.826v-686.714c0-39.692 32.183-71.924 71.875-71.924h880.347c39.692 0 71.826 32.183 71.826 71.924v686.714c-0.049 39.692-32.134 71.826-71.875 71.826zM301.007 90.38c-13.946 128.683-112.981 231.131-239.47 250.929v213.382c126.488 19.797 225.524 122.344 239.47 250.929h422.034c13.995-129.073 113.81-232.009 241.030-251.221v-212.797c-127.22-19.261-227.035-122.1-241.030-251.221h-422.034zM964.072 774.558v-151.406c-98.938 14.677-164.474 81.335-175.884 182.516h115.761c35.011-0.049 60.123-5.803 60.123-31.11zM125.708 805.62h110.153c-11.362-100.547-76.166-167.253-174.275-182.418v151.357c0 26.917 29.062 31.061 64.122 31.061zM61.586 121.539v151.357c98.158-15.165 162.914-81.92 174.275-182.467h-110.153c-35.060-0.049-64.122 6.339-64.122 31.11zM903.948 90.38h-115.761c11.41 101.23 76.946 167.887 175.884 182.565v-151.406c0-27.941-25.112-31.159-60.123-31.159z" />
<glyph unicode="&#xe63f;" d="M33.597 925.379c-15.994 0-29.013-8.923-29.013-19.895v-949.541c0-11.020 12.922-19.944 29.013-19.944 15.994 0 29.013 8.923 29.013 19.895v949.541c0 10.971-12.922 19.944-29.013 19.944zM743.912 202.923c-62.757 0-124.928 16.677-184.515 49.542-115.81 63.829-223.427 77.141-293.352 77.141-67.194 0-110.202-12.093-110.69-12.239-7.558-2.097-15.799-0.585-22.040 4.145-6.29 4.681-10.045 12.142-10.045 19.992v575.098c0 10.533 6.583 19.944 16.433 23.552 2.243 0.829 54.857 19.846 143.75 19.846 113.42 0 231.034-29.598 349.525-87.966 38.619-19.017 80.116-28.623 123.124-28.623 122.636 0 221.525 77.629 222.501 78.409 7.509 6.046 17.847 7.168 26.575 3.023 8.631-4.194 14.19-12.971 14.19-22.577v-575.098c0-6.827-2.731-13.312-7.607-18.042-4.486-4.389-111.421-106.203-267.849-106.203zM266.045 379.831c75.776 0 192.366-14.482 317.538-83.432 52.175-28.77 106.106-43.301 160.329-43.301 113.664 0 199.973 64.122 225.329 85.382v516.827c-44.715-26.331-122.295-62.123-213.090-62.123-50.859 0-99.718 11.362-145.262 33.792-139.069 68.413-254.83 82.798-327.436 82.798-51.834 0-89.771-7.119-109.909-12.093v-525.214c21.65 3.608 53.346 7.363 92.501 7.363z" />
<glyph unicode="&#xe640;" d="M1024 712.387c0 39.741-32.134 72.021-71.924 72.021 0 0-324.706 0-428.373 0-45.495 0-62.708 45.154-76.166 66.609-26.868 42.91-43.349 72.021-100.45 72.021h-275.115c-39.741-0.049-71.973-32.28-71.973-72.021v-805.986c0-39.741 32.232-72.021 71.973-72.021h880.152c39.741 0 71.924 32.232 71.924 72.021v667.355zM964.072 61.854c0-27.941-7.509-31.159-42.618-31.159h-810.277c-35.109 0-49.591 6.339-49.591 31.159v772.291c0 26.965 14.482 31.159 49.591 31.159h205.19c48.664 0 54.808-7.753 75.142-40.229 37.010-59.246 51.785-98.402 115.273-98.402 63.439 0 414.622 0 414.622 0 35.109 0 42.618-5.754 42.618-31.159v-633.661z" />
<glyph unicode="&#xe641;" d="M952.027 632.027h-29.501v80.311c0 39.741-32.28 72.021-72.021 72.021 0 0-223.134 0-326.802 0-45.495 0-62.708 45.154-76.215 66.609-26.868 42.91-43.349 72.021-100.45 72.021h-275.066c-39.741 0-71.973-32.232-71.973-72.021v-805.986c0-39.741 32.232-72.021 71.973-72.021h880.055c39.79 0 72.021 32.232 72.021 72.021v515.023c-0.049 39.79-32.232 72.021-72.021 72.021zM111.177 865.256h205.19c48.664 0 54.808-7.704 75.093-40.18 37.010-59.294 51.883-98.45 115.371-98.45 63.39 0 313.003 0 313.003 0 35.157 0 42.667-5.754 42.667-31.159v-63.488h-800.963v202.118c0 27.014 14.58 31.159 49.64 31.159zM964.023 61.854c0-27.941-7.509-31.159-42.667-31.159h-810.179c-35.109 0-49.64 6.339-49.64 31.159v481.329c0 27.014 14.531 31.159 49.64 31.159h810.179c35.157 0 42.667-5.754 42.667-31.159v-481.329z" />
<glyph unicode="&#xe642;" d="M635.075 464.043c0-12.581-14.531-22.772-32.427-22.772v0c-17.944 0-32.378 10.191-32.378 22.772v473.137c0 12.581 14.434 22.772 32.378 22.772v0c17.896 0 32.427-10.191 32.427-22.772v-473.137zM440.564 464.043c0-12.581-14.482-22.772-32.378-22.772v0c-17.993 0-32.427 10.191-32.427 22.772v473.137c0 12.581 14.434 22.772 32.427 22.772v0c17.896 0 32.378-10.191 32.378-22.772v-473.137zM938.082 167.278h-48.518v85.577c0 34.718-22.333 58.904-53.297 67.682v612.693c-0.146 0.439-0.488 0.536-0.488 1.317 0 33.938-65.731 33.938-65.731 0 0-0.536 0-564.907 0-610.158h-529.262c0 45.251 0 610.060 0 610.158 0 33.938-68.315 33.938-68.072-0.439v-612.888c-32.28-8.094-55.881-32.67-55.881-68.315v-85.577h-30.915c-43.934 0-79.531-35.547-79.531-79.482v-104.546c0-43.886 5.803-47.299 49.737-47.299h912.482c43.886 0 49.054 3.365 49.054 47.299v104.546c-0.049 43.886-35.596 79.433-79.579 79.433zM177.006 230.034c0 28.623 12.239 36.035 42.959 36.035h568.271c30.72 0 41.301-7.412 41.301-36.035v-62.757h-652.532v62.757zM949.102 18.31c0-15.75-2.097-19.797-15.019-19.797h-845.239c-15.214 0-13.897 5.218-13.897 19.797v53.15c0 18.383 10.045 33.402 38.424 33.402h793.99c29.111 0 41.691-15.019 41.691-33.402v-53.15z" />
<glyph unicode="&#xe643;" d="M952.71 386.658h-308.663c-39.4 0-71.339-31.939-71.339-71.387v-309.346c0-39.4 31.939-71.339 71.339-71.339h308.663c39.448 0 71.339 31.939 71.339 71.339v309.346c-0.049 39.4-31.939 71.387-71.339 71.387zM964.559 22.65c0-27.746-24.966-30.915-59.782-30.915h-207.336c-34.816 0-63.732 6.29-63.732 30.915v275.846c0 26.77 28.916 30.964 63.732 30.964h207.336c34.816 0 59.782-5.754 59.782-30.964v-275.846zM952.71 961.365h-308.663c-39.4 0-71.339-31.939-71.339-71.339v-309.297c0-39.448 31.939-71.387 71.339-71.387h308.663c39.448 0 71.339 31.939 71.339 71.387v309.297c-0.049 39.4-31.939 71.339-71.339 71.339zM964.559 597.455c0-27.843-24.966-31.013-59.782-31.013h-207.336c-34.816 0-63.732 6.339-63.732 31.013v275.846c0 26.673 28.916 30.915 63.732 30.915h207.336c34.816 0 59.782-5.803 59.782-30.915v-275.846zM380.050 386.658h-308.712c-39.4 0-71.339-31.939-71.339-71.387v-309.346c0-39.4 31.939-71.339 71.339-71.339h308.712c39.448 0 71.339 31.939 71.339 71.339v309.346c0 39.4-31.89 71.387-71.339 71.387zM391.948 22.65c0-27.746-25.015-30.915-59.831-30.915h-207.336c-34.767 0-63.683 6.29-63.683 30.915v275.846c0 26.77 28.916 30.964 63.683 30.964h207.336c34.816 0 59.831-5.754 59.831-30.964v-275.846zM380.050 961.365h-308.712c-39.4 0-71.339-31.939-71.339-71.339v-309.297c0-39.448 31.939-71.387 71.339-71.387h308.712c39.448 0 71.339 31.939 71.339 71.387v309.297c0 39.4-31.89 71.339-71.339 71.339zM391.948 597.455c0-27.843-25.015-31.013-59.831-31.013h-207.336c-34.767 0-63.683 6.339-63.683 31.013v275.846c0 26.673 28.916 30.915 63.683 30.915h207.336c34.816 0 59.831-5.803 59.831-30.915v-275.846z" />
<glyph unicode="&#xe644;" d="M953.49 391.68c-0.585 0-1.122-0.195-1.707-0.195-9.021 32.378-37.547 55.93-72.119 58.466v88.308c0 200.070-164.181 362.301-366.738 362.301-202.508 0-366.69-162.231-366.69-362.301v-88.015c-35.45-1.707-64.805-25.795-73.972-58.758-0.634 0-1.122 0.195-1.707 0.195-39.010 0-70.558-19.651-70.558-60.757v-204.459c0-44.617 31.549-66.95 70.558-66.95 0.098 0 0.146 0 0.293 0 7.802-36.474 40.277-63.976 79.189-63.976h16.091c0 0 17.847-0.341 49.493 0.488 42.374 2.536 76.166 37.449 76.166 80.457v293.449c0 41.691-31.598 75.63-72.119 80.116v86.357c0 160.037 131.218 289.841 293.303 289.841 161.987 0 293.4-129.804 293.4-289.841v-86.211c-41.399-3.56-74.021-37.937-74.021-80.262v-293.449c0-44.715 36.23-80.945 80.994-80.945h60.709c38.912 0 71.387 27.453 79.189 63.976 0.146 0 0.195 0 0.293 0 39.010 0 70.51 22.333 70.51 66.95v204.459c-0.049 41.058-31.549 60.757-70.558 60.757zM216.357 95.5c0-27.16-0.293-34.621-36.279-34.962-33.938 0.341-35.986 5.071-35.986 34.962v255.464c0 27.502 2.048 34.523 37.547 35.011 34.377-0.488 34.767-6.095 34.767-35.011v-255.464zM879.957 95.5c0-29.891-1.999-34.621-35.889-34.962-36.035 0.341-36.328 7.802-36.328 34.962v255.464c0 28.916 0.341 34.523 34.767 35.011 35.499-0.488 37.498-7.461 37.498-35.011v-255.464z" />
<glyph unicode="&#xe645;" d="M905.070 506.904c-0.536 0-1.024-0.195-1.512-0.195-7.997 28.867-33.402 49.835-64.171 52.078v78.653c-0.049 178.127-146.237 322.56-326.558 322.56s-326.51-144.433-326.51-322.56v-78.36c-31.549-1.463-57.734-22.967-65.877-52.322-0.536 0-1.024 0.195-1.512 0.195-34.767 0-62.805-17.506-62.805-54.077v-182.028c0-39.741 28.038-59.685 62.805-59.685 0.098 0 0.146 0 0.244 0 6.973-32.475 35.84-56.905 70.51-56.905h14.336c30.622-84.407 110.348-149.553 210.944-171.447v-3.511c0.049-23.942 19.407-43.301 43.301-43.301h107.422c23.893 0 43.301 19.358 43.301 43.252v56.564c0 23.942-19.358 43.349-43.301 43.349h-107.422c-23.893 0-43.301-19.358-43.301-43.349v-11.752c-80.75 20.041-139.362 71.534-166.912 130.584 37.742 2.243 67.828 33.353 67.828 71.68v261.218c0 37.157-28.136 67.389-64.268 71.339v76.898c0 142.531 116.882 258.097 261.169 258.097 144.238 0 261.218-115.566 261.218-258.097v-76.751c-36.913-3.17-65.975-33.743-65.975-71.485v-261.218c0-39.79 32.28-72.119 72.119-72.119h54.028c34.67 0 63.586 24.43 70.51 56.905 0.098 0 0.146 0 0.244 0 34.767 0 62.805 19.895 62.805 59.685v182.028c0.146 36.571-27.941 54.077-62.659 54.077zM248.734 243.2c0-24.186-0.293-30.818-32.329-31.208-30.184 0.39-31.988 4.535-31.988 31.208v227.426c0 24.527 1.804 30.818 33.402 31.208 30.622-0.39 30.964-5.413 30.964-31.208v-227.426zM839.631 243.2c0-26.673-1.804-30.818-31.988-31.208-32.037 0.39-32.329 7.022-32.329 31.208v227.426c0 25.746 0.341 30.818 30.964 31.208 31.549-0.39 33.402-6.68 33.402-31.208v-227.426z" />
<glyph unicode="&#xe646;" d="M874.106 810.057c-199.973 199.924-524.19 199.924-724.163 0-199.973-200.021-199.973-524.142 0-724.114 199.924-199.924 524.19-199.924 724.163 0 199.924 199.973 199.924 524.093 0 724.114zM189.44 125.44c-178.225 178.225-178.176 467.042-0.049 645.169 178.176 178.127 467.042 178.127 645.218-0.049 178.127-178.127 178.176-466.993 0-645.071-178.176-178.225-467.042-178.225-645.169-0.049zM549.937 203.752c0-21.814-17.683-39.497-39.497-39.497s-39.497 17.683-39.497 39.497c0 21.814 17.683 39.497 39.497 39.497s39.497-17.683 39.497-39.497zM475.477 332.19c-4.925 44.13 9.801 88.357 50.712 137.46 36.766 43.349 57.246 75.24 57.246 112.104 0 41.643-24.722 65.292-76.312 66.072-29.452 0-56.856-12.629-76.849-24.235 0 0-29.452-22.138-46.373-1.073-23.259 29.111 19.554 55.686 19.554 55.686 27.014 19.651 73.63 32.768 116.931 32.768 94.11 0 136.631-58.075 136.631-120.247 0-55.589-31.159-95.671-70.363-142.287-35.938-42.569-49.054-74.557-46.616-116.2 0 0 2.438-28.331-31.598-28.331-35.499-0.098-32.963 28.282-32.963 28.282z" />
<glyph unicode="&#xe647;" d="M422.424 664.6h-213.187c-11.215 0-20.285-12.922-20.285-28.916 0-15.896 9.070-28.867 20.285-28.867h213.187c11.215 0 20.334 12.971 20.334 28.867 0 16.043-9.070 28.916-20.334 28.916zM842.069 759.54h-213.187c-11.215 0-20.334-12.873-20.334-28.916 0-15.896 9.118-28.867 20.334-28.867h213.187c11.215 0 20.285 12.971 20.285 28.867 0 16.043-9.070 28.916-20.285 28.916zM1001.082 761.685l-119.32 137.947c-0.731 0.683-1.755 0.878-2.584 1.463-0.975 0.585-1.804 1.073-2.828 1.463-1.17 0.488-2.341 0.878-3.608 1.073-0.878 0.195-1.658 0.78-2.584 0.78h-319.342v35.255c0 11.215-12.922 20.334-28.916 20.334-15.896 0-28.916-9.070-28.916-20.334v-131.95h-339.139c-0.975 0-1.707-0.585-2.633-0.731-1.268-0.195-2.438-0.585-3.608-1.073-0.975-0.39-1.853-0.829-2.779-1.463-0.829-0.585-1.853-0.731-2.584-1.463l-119.32-137.899c-0.683-0.585-15.262-15.701-15.262-27.112 0-9.704 14.58-26.965 15.214-27.55l119.32-145.018c0.439-0.439 1.073-0.488 1.609-0.878 1.56-1.365 3.316-2.292 5.218-2.926 0.195-0.049 0.488-0.146 0.731-0.195 1.317-0.439 2.584-1.17 4.047-1.17h339.139v-371.224h-26.819c-37.449 0-71.778-38.181-71.778-77.336v-33.548c0.098-39.107 5.218-42.13 44.422-42.13h167.010c39.156 0 43.691 3.023 43.691 42.179v33.548c0 39.156-32.67 77.336-70.851 77.336h-27.794v467.822h319.342c1.463 0 2.731 0.683 4.047 1.17 0.244 0 0.536 0.098 0.731 0.195 1.902 0.585 3.657 1.56 5.218 2.926 0.536 0.39 1.17 0.39 1.609 0.878l119.32 144.969c0.683 0.585 15.214 17.847 15.214 27.599 0.049 11.362-14.531 26.478-15.214 27.063zM592.116 7.339c-0.195-12.093-2.438-15.604-13.263-15.604h-114.834c-12.483 0-12.386 4.291-12.386 15.067 0.098 16.482 9.118 29.696 34.28 29.696h69.096c25.551 0 36.815-13.019 37.108-29.16zM171.301 518.071l-91.77 119.954 91.331 111.957h322.121v-231.912h-321.682zM852.699 614.668h-301.885v231.96h302.324l91.331-111.957-91.77-120.003z" />
<glyph unicode="&#xe648;" d="M1010.005 525.58l-106.106 60.318c4.925 4.974 10.386 9.704 15.067 14.677 0 0 21.406 19.407-0.439 40.18-19.651 18.822-47.787-11.898-47.787-11.898-83.87-84.894-222.842-162.426-354.304-163.889-131.462 1.463-270.482 78.994-354.353 163.889 0 0-28.087 30.72-47.835 11.898-21.748-20.773-0.39-40.18-0.39-40.18 4.242-4.486 9.362-8.923 13.848-13.458l-113.664-64.756c-13.702-7.948-18.139-25.99-9.704-40.472 8.338-14.336 26.185-19.651 39.838-11.849l123.709 70.607c2.341 1.317 3.998 3.316 5.754 5.169 17.359-14.238 35.742-27.843 55.296-40.716l-85.236-108.251c-9.801-12.386-7.217-30.818 5.851-41.106 13.166-10.338 31.646-8.631 41.448 3.803l90.063 114.395c22.138-11.849 44.812-22.869 68.267-31.89l-42.033-129.56c-4.827-15.116 4.047-31.451 19.895-36.523s32.67 3.023 37.547 18.042l41.984 129.317c25.746-6.875 51.736-10.776 77.726-13.019v-132.632c0-15.799 13.556-28.623 30.184-28.623 16.677 0 30.086 12.824 30.086 28.623v132.34c26.185 1.95 52.273 5.9 78.214 12.581l39.741-127.464c4.876-15.116 21.699-23.162 37.595-18.091 15.848 5.12 24.722 21.406 19.846 36.523l-39.643 127.415c23.747 9.118 46.958 19.895 69.486 31.89 0.439-0.731 0.536-1.512 1.024-2.146l85.528-108.3c9.752-12.434 28.331-14.092 41.448-3.852 13.166 10.338 15.75 28.721 5.9 41.155l-82.018 103.912c19.602 12.824 38.132 26.478 55.735 40.765 1.365-1.268 2.487-2.779 4.145-3.755l118.248-67.34c13.653-7.851 31.5-2.536 39.838 11.849 8.338 14.482 3.95 32.475-9.801 40.424z" />
</font>
</defs>
</svg>
